<?xml version="1.0"?><svg xmlns="http://www.w3.org/2000/svg" xmlns:xlink="http://www.w3.org/1999/xlink" contentScriptType="text/ecmascript" fill="#000000" width="513.3" zoomAndPan="magnify" contentStyleType="text/css" viewBox="0.3 1.7 513.3 508.5" height="508.5" preserveAspectRatio="xMidYMid meet" version="1"><g clip-rule="evenodd" fill-rule="evenodd"><g id="change1_1"><path fill="#3a6b1a" d="M493.3,51h-37.4c-1.6,0-3,1.4-3,3v337.4h43.4V54C496.3,52.3,495,51,493.3,51L493.3,51z M455.9,35.6h37.4 c10.1,0,18.4,8.3,18.4,18.4v345.1c0,4.2-3.4,7.7-7.7,7.7h-58.8c-4.3,0-7.7-3.4-7.7-7.7V54C437.5,43.8,445.8,35.6,455.9,35.6z"></path></g><g id="change1_2"><path fill="#3a6b1a" d="M496.3,108.1h-43.4v180h43.4V108.1L496.3,108.1z M446.2,92.8H503c2.4,0,4.6,1,6.2,2.6c1.6,1.6,2.6,3.8,2.6,6.2 v193.4c0,4.7-3.9,8.7-8.7,8.7h-56.8c-4.7,0-8.7-3.9-8.7-8.7V101.5C437.5,96.7,441.4,92.8,446.2,92.8z"></path></g><g id="change1_3"><path fill="#3a6b1a" d="M445.2,391.4l58.8,0c5.7-0.2,9.6,6.5,6.8,11.4l-29.2,63.1c-1.8,3.9-6.3,5.5-10.2,3.8c-1.7-0.8-3-2.2-3.8-3.8 l-29.4-63.5C435.8,397.3,439.8,391.3,445.2,391.4z M492,406.8h-34.8l17.4,37.5L492,406.8z"></path></g><g id="change1_4"><path fill="#3a6b1a" d="M9.2,1.7l317,0c67.9,1,63.5,39.1,63.2,63.2c0,0,0,384.7,0,384.7c0,33.3-27.3,60.6-60.6,60.6h-255 c-28.4,0-41.7-13-59.4-30.3c-3.9-5.1-13.8-9.6-14.1-17.2c0,0,1.2-453.4,1.2-453.4C1.5,5.2,4.9,1.7,9.2,1.7z M326.2,17.1H16.8 l-1.2,442.8c18,16.7,31.6,35.5,58.2,35h255c12.4,0,23.7-5.1,31.9-13.3h0c8.2-8.2,13.3-19.5,13.3-31.9V65l0.1-4.5 C374.6,45.3,375.5,17.1,326.2,17.1z"></path></g><g id="change1_5"><path fill="#3a6b1a" d="M8,2.9h307.5c9.9,0,18.9,4.1,25.4,10.6c6.5,6.5,10.6,15.5,10.6,25.4V435c0,19.8-16.3,36-36,36H8 c-4.2,0-7.7-3.4-7.7-7.7V10.6C0.3,6.3,3.7,2.9,8,2.9z M315.4,18.3H15.7v437.3h299.8c11.4,0,20.6-9.2,20.6-20.6V38.9 C336,27.5,326.8,18.3,315.4,18.3z"></path></g><g id="change1_6"><path fill="#3a6b1a" d="M63.1,51.7h225.4c4.5,0,8.5,1.8,11.5,4.8h0c2.9,2.9,4.8,7,4.8,11.5v111.4c0,4.8-2,9.1-5.4,12 c-2.9,2.6-6.7,4.2-10.9,4.2H63.1c-4.5,0-8.6-1.8-11.5-4.8c-2.9-2.9-4.8-7-4.8-11.5V68C46.9,59,54.2,51.7,63.1,51.7z M288.6,67.1 c-1,1-226.4-1.7-226.3,0.9c0,0,0,111.4,0,111.4c0,0.5,0.4,0.9,0.9,0.9c0.6-0.3,225.6,0.5,226.1-0.3c0.9-0.3-0.1-111.5,0.3-112 C289.4,67.5,289.1,67.1,288.6,67.1z"></path></g><g id="change1_7"><path fill="#3a6b1a" d="M54.6,292.6c-10,0-10.1-15.3,0-15.4c0,0,242.6,0,242.6,0c10,0,10.1,15.3,0,15.4 C297.1,292.6,54.6,292.6,54.6,292.6z"></path></g><g id="change1_8"><path fill="#3a6b1a" d="M54.6,257c-10,0-10.1-15.3,0-15.4c0,0,242.6,0,242.6,0c10,0,10.1,15.3,0,15.4C297.1,257,54.6,257,54.6,257z"></path></g><g id="change1_9"><path fill="#3a6b1a" d="M54.6,328.2c-10,0-10.1-15.3,0-15.4c0,0,242.6,0,242.6,0c10,0,10.1,15.3,0,15.4 C297.1,328.2,54.6,328.2,54.6,328.2z"></path></g><g id="change1_10"><path fill="#3a6b1a" d="M54.6,363.9c-10,0-10.1-15.3,0-15.4c0,0,242.6,0,242.6,0c10,0,10.1,15.3,0,15.4 C297.1,363.9,54.6,363.9,54.6,363.9z"></path></g><g id="change1_11"><path fill="#3a6b1a" d="M54.6,399.5c-10,0-10.1-15.3,0-15.4c0,0,121.3,0,121.3,0c10,0,10.1,15.3,0,15.4 C175.8,399.5,54.6,399.5,54.6,399.5z"></path></g><g id="change1_12"><path fill="#3a6b1a" d="M151.5,88.5h48.8c4.3,0,7.7,3.4,7.7,7.7V188c0,4.2-3.4,7.7-7.7,7.7h-48.8c-4.3,0-7.7-3.4-7.7-7.7V96.2 C143.8,91.9,147.2,88.5,151.5,88.5z M192.5,103.9h-33.4v76.4h33.4V103.9z"></path></g><g id="change1_13"><path fill="#3a6b1a" d="M200.2,106.8H249c4.3,0,7.7,3.4,7.7,7.7V188c0,4.2-3.4,7.7-7.7,7.7h-48.8c-4.2,0-7.7-3.4-7.7-7.7v-73.5 C192.5,110.3,196,106.8,200.2,106.8z M241.3,122.2h-33.4v58.1h33.4V122.2z"></path></g><g id="change1_14"><path fill="#3a6b1a" d="M102.7,122.3h48.8c4.2,0,7.7,3.4,7.7,7.7v58c0,4.2-3.4,7.7-7.7,7.7h-48.8c-4.2,0-7.7-3.4-7.7-7.7v-58 C95,125.7,98.5,122.3,102.7,122.3z M143.8,137.7h-33.4v42.6h33.4V137.7z"></path></g><g id="change2_1"><path fill="#7eae5e" d="M62.2,68v111.4c0,0.5,0.4,0.9,0.9,0.9H95V130c0-4.3,3.4-7.7,7.7-7.7h41.1V96.2c0-4.3,3.4-7.7,7.7-7.7h48.8 c9.9,0.3,7.4,11.8,7.7,18.4H249c4.3,0,7.7,3.4,7.7,7.7v65.8h31.9c0.2,0,0.5-0.1,0.6-0.3c0.8-0.3,0-111.5,0.3-112 c0-0.5-0.4-0.9-0.9-0.9C287.5,68.1,62.2,65.3,62.2,68z"></path></g><g id="change2_2"><path fill="#7eae5e" d="M340.8,460.4L340.8,460.4L340.8,460.4z M351.4,38.9V435c0,19.7-16.3,36-36,36H27.1 c14.2,13.8,25.5,23.9,46.7,23.9h255c12.4,0,23.7-5.1,32-13.3c8.2-8.2,13.3-19.5,13.3-31.9V65c0.1-16.1,3.7-38.1-28.8-46.1 C349.2,24.6,351.4,31.5,351.4,38.9z"></path></g><g id="change2_3"><path fill="#7eae5e" d="M452.9 303.5H496.29999999999995V391.3H452.9z"></path></g><g id="change2_4"><path fill="#7eae5e" d="M452.9,92.8h43.4V54c0-0.8-0.3-1.6-0.9-2.1s-1.3-0.9-2.1-0.9h-37.4c-1.6,0-3,1.4-3,3V92.8z"></path></g></g></svg>