<?xml version="1.0"?><svg xmlns="http://www.w3.org/2000/svg" xmlns:xlink="http://www.w3.org/1999/xlink" contentScriptType="text/ecmascript" fill="#001f52" width="501" zoomAndPan="magnify" contentStyleType="text/css" viewBox="0.0 -1.6 501.0 471.0" height="471" preserveAspectRatio="xMidYMid meet" version="1"><g><g><g id="change1_1"><path fill="#7eae5e" d="M481.88,6.18c-57.72-2.54-249.82-6.15-249.82-6.15s-21.97-1.58-23.81,16.51 c-3.45,34.08-14.61,102.6-19.04,135.68c-4.43,33.08-18.41,143.73-18.41,143.73s42.83-20.65,59.93-29.53 c17.1-8.88,39.58-10.3,64.71-4.35s24.17,25.97,22.91,33.76c-1.26,7.79-36.55,43.26-36.55,43.26l-81.49,69.58 c0,0,212.4,10.24,237.31,10.24c25.02,0,22.5-6.27,24.75-20.16c2.25-13.89,37.63-377,37.63-377S501.01,7.02,481.88,6.18z M218.33,7.39c-0.13-0.85-0.56-1.91,0.59-2.42C219.71,5.93,219.58,6.72,218.33,7.39z M229.69,37.31 c-1.14,1.81-2.27,3.61-3.5,5.58c-0.4-0.03-0.98-0.08-1.49-0.12c-0.2-0.23-0.47-0.39-0.46-0.54c0.14-2.07,0.32-4.14,0.54-6.82 c-0.2-1.87,0.84-2.39,1.59-3.11l0.5-6.09c0.51-0.66,1.15-0.53,1.88-0.46c0.51,0.56,1.08,1.17,1.74,1.88L229.69,37.31z M482.5,164.57c-0.71,0.98-1.39,0.58-2.29,0.27c-0.13-2.4,0.04-4.47,0.21-6.51c-0.4-0.49-0.8-0.97-1.15-1.4l0.2-2.49l1.26-1.03 c0.13-1.58,0.28-3.38,0.4-4.8c0.73-1,1.4-0.72,2.01-0.71c0.22,0.32,0.64,0.66,0.62,0.97 C483.36,154.22,482.91,159.56,482.5,164.57z M489.54,16.41c-0.45,0.4-0.92,0.81-1.38,1.22c-0.2,2.47-0.41,4.93-0.63,7.71 c-0.24,0.29-0.48,0.33-0.65,0.24c-0.18-0.09-0.35-0.27-0.41-0.45c-0.5-1.44-0.97-2.89-1.44-4.34c-1.97-0.4-3.12-2.73-5.29-1.94 c-0.75-0.86-1.31-1.49-1.83-2.42c1.09-0.22,2.16-0.13,3.22-0.05c1.25-0.78,2.23-1.75,2.53-3.21c1.47-0.6,2.89,0.19,4.18-0.05 c0.71,0.8,1.26,1.43,1.83,2.08L489.54,16.41z"></path></g></g><g id="change2_3"><path d="M340.4,373.88c1.04,1.24,1.86,2.22,2.7,3.21c0.5,0.93-0.81,2.34,0.82,2.86c-0.17,2.06-0.33,3.97-0.49,5.92 c-0.99,0.67-0.86,2.27-2.09,2.85c-0.05,0.64-0.11,1.28-0.16,1.92c-2.92,2.49-5.83,4.98-8.78,7.5c-1.22-0.1-2.48-0.2-3.73-0.31 c-0.39,0.31-0.76,0.6-1.12,0.89c-1.02,0.28-1.29-0.72-1.97-1.16c-1.83-0.15-3.72-0.31-5.61-0.46c-0.29-1.18-1.66-0.75-2.2-1.58 c-0.51-0.79-1.69-0.61-2.2-1.54c-0.52-0.92-1.58-1.54-1.43-2.81c-0.98-0.69-0.57-1.69-0.63-2.61c-0.03-0.4-0.46-0.78-0.78-1.27 c0.07-0.83,0.15-1.78,0.21-2.51c0.79-1.3,1.53-2.41,2.16-3.6c0.7-1.32,2.39-1.78,2.91-2.99c0.62-1.43,1.68-2.23,2.74-3.07 c1.06-0.84,2.31-1.44,3.48-2.13c1.17-0.69,2.6-0.94,3.57-2.23c1,0.03,2.07,0.06,3.09,0.1c0.3-0.25,0.54-0.46,0.87-0.75 c1.48,0.12,3.04,0.25,4.71,0.39C337.58,371.55,339.32,372.06,340.4,373.88z"></path></g><g id="change2_4"><path d="M355.58,15.37c2.06-0.14,3.78,0,5.49,0.14c0.67,0.79,1.27,1.68,2.54,1.52c0.88,0.89,0.2,2.49,1.59,3.15 c-0.17,2.05-0.34,4.11-0.51,6.19c-1.46,0.61-1.58,2.22-2.37,3.32c-0.83,1.14-1.62,1.77-2.91,2.37c-1.25,0.59-2.93,0.43-3.79,1.71 c-3.02-0.25-6.01-0.5-8.98-0.74c-0.58-0.66-1.14-1.29-1.73-1.96c0.06-0.78,0.13-1.6,0.19-2.31c-0.3-0.86-1.4-1.18-1.16-2.25 c-0.15-1.02,1.21-1,1.49-1.79c0.1-1.23,0.2-2.46,0.3-3.65c1.51-1.24,2.82-2.78,4.51-3.54C351.84,16.84,353.5,16.11,355.58,15.37z"></path></g><g><g><g id="change2_2"><path d="M228.93,301.14c0.01-0.01,0.01-0.02,0.02-0.02c0,0,0,0,0,0c0-0.02,0-0.04,0.01-0.06 C228.95,301.08,228.94,301.11,228.93,301.14z"></path><path d="M467.87,88.4c-0.37-0.43-0.65-0.74-0.98-1.12c0.5-6.12,1.01-12.3,1.52-18.49c-0.39-0.51-0.77-0.99-1.19-1.54 c0.09-1.15,0.2-2.38,0.3-3.61c-0.41-0.5-0.8-0.98-1.21-1.47c0.05-0.6,0.1-1.22-0.1-2.21c0.14-6.59-5.54-6.96-9.65-9.19 c-1.61-0.13-2.9-0.24-4.16-0.34c-0.44-0.47-0.87-0.92-1.31-1.39c-0.85-0.07-1.7-0.14-2.46-0.2c-0.5-0.5-0.94-0.93-1.4-1.4 c-5.13-0.42-10.26-0.85-15.24-1.26c-0.56-0.53-1.01-0.95-1.39-1.31c-1.74,0.06-3.39-0.79-4.96,0.63c-0.62,0.56-2,0.24-2.89-0.23 c-0.34-0.38-0.61-0.7-0.98-1.11c-1.83-0.15-3.74-0.33-5.66-0.45c-0.38-0.02-0.78,0.15-1.17,0.24c-0.33,0.27-0.65,0.54-0.99,0.81 c-3.85-0.32-7.71-0.64-11.55-0.95c-0.51,0.38-1.01,0.76-1.52,1.15c-8.13-0.67-16.27-1.34-24.36-2.01 c-0.54,0.4-1.04,0.77-1.56,1.15c-4.71-0.39-9.41-0.78-14.06-1.16c-0.38,0.31-0.71,0.58-1.28,1.04 c-3.78-0.31-7.8-0.64-11.59-0.96c-0.57,0.46-0.9,0.73-1.46,1.19c-6.36-0.52-12.95-1.07-19.32-1.59 c-0.57,0.46-0.89,0.73-1.46,1.19c-2.07-0.17-4.37-0.36-6.44-0.53c-0.57,0.47-0.9,0.73-1.22,1c-3.6-0.07-7.17-0.73-10.51-0.68 c-0.6,0.49-0.93,0.76-1.26,1.03c-1.29-0.11-2.57-0.21-3.84-0.32c-0.51,0.39-1.01,0.77-1.52,1.16c-2.99-0.25-5.99-0.49-8.9-0.73 c-0.57,0.41-1.07,0.77-1.6,1.15c-3.42-0.28-6.83-0.56-10.17-0.84c-0.4,0.33-0.73,0.59-1.3,1.06c-2.5-0.21-5.23-0.43-7.73-0.64 c-0.57,0.47-0.9,0.73-1.47,1.2c-1.64-0.14-3.51-0.29-5.15-0.42c-0.57,0.47-0.9,0.73-1.28,1.04c-3.37-0.28-6.79-0.56-10.26-0.85 c-0.8,0.59-1.48,1.53-2.78,1.02c-0.38-0.4-0.81-0.85-1.22-1.28c-0.88-0.07-1.73-0.14-2.6-0.21c-0.69,0.87-1.68,0.96-2.72,1.19 c-1.03,0.23-0.42,1.87-1.57,2.41c-0.95,0.44-0.41,1.87-1.56,2.47c-0.84,0.43-1.77,1-1.96,2.23c-0.1,0.68-1.04,1.19-1.34,1.89 c-0.32,0.72-0.05,1.84-0.53,2.29c-0.86,0.79-1.22,1.58-1.22,2.65c-0.01,0.79-0.12,1.57-0.16,2.06 c-0.66,0.54-0.99,0.81-1.56,1.27c-0.13,1.59-0.28,3.39-0.41,4.98c-0.57,0.45-0.9,0.71-1.22,0.97c-0.14,1.67-0.27,3.32-0.41,4.95 c-0.48,0.42-0.95,0.83-1.44,1.26c-0.17,2.06-0.34,4.12-0.5,6.09c-0.51,0.48-0.96,0.9-1.44,1.34c-0.54,6.6-1.09,13.2-1.63,19.73 c-0.4,0.33-0.73,0.59-1.29,1.05c-0.68,8.2-1.37,16.62-2.03,24.68c-0.7,0.73-1.12,1.16-1.59,1.64 c-0.41,4.94-0.81,9.86-1.21,14.66c-0.47,0.38-0.8,0.65-1.12,0.92c-0.05,0.19-0.14,0.37-0.16,0.56 c-0.57,6.82-1.13,13.64-1.7,20.45c-0.01,0.16-0.23,0.31-0.35,0.47c-0.33,0.27-0.65,0.53-1.13,0.92c0.26,1.69-0.6,3.48-0.15,5.16 c0.46,0.48,0.75,0.78,1.01,1.05c-0.14,1.71-0.28,3.36-0.41,4.97c-0.49,0.43-0.95,0.84-1.43,1.27 c-0.92,11.16-1.84,22.31-2.75,33.38c-0.51,0.47-0.96,0.89-1.31,1.21c-0.64,1.38,0.88,1.85,1.07,3.27 c-0.92,11.11-1.87,22.66-2.8,34c0.47,0.68,0.81,1.17,1.19,1.73c-0.27,3.28-0.54,6.55-0.8,9.69c0.4,0.46,0.68,0.77,1.01,1.15 c-0.1,1.17-0.2,2.39-0.3,3.67c-1,0.67-1.36,1.82-1.89,2.86c-0.76,0.23-1.6,0.33-2.24,0.73c-0.59,0.37-1.2,0.27-1.73,0.46 c-0.75,0.27-1.43,0.85-2.02,1.41c-0.67,0.64-1.37,0.75-2.28,0.75c-0.49,0-1.08,0.66-1.45,1.15c-0.46,0.61-0.75,1.34-1.11,2.03 c-3.38,0.22-5.58,3.02-8.77,3.68c-0.2,0.55-0.39,1.09-0.7,1.95c-1.23-0.36-2.22,0.33-3.17,1.11c-2.41-0.8-1.57,1.93-2.83,2.43 c-0.55,0.22-1,0.68-1.36,0.93c-1.03-0.04-1.86-0.07-2.54-0.09c-0.81,0.66-1.39,1.51-2.14,1.67c-1.75,0.39-3.13,2.03-5.19,1.71 c-1.49,1.79-3.48,2.3-5.37,2.99c-0.64-0.05-1.29-0.11-2.59-0.21c-0.99,1.01-2.3,2.35-3.47,3.55c-1.2-0.1-2.03-0.17-2.77-0.23 c-0.91,0.75-1.73,1.41-2.55,2.09c-1.41,0.08-2.99-0.47-4.04,0.98c-1.87-0.24-3.32,1.88-5.31,0.88 c-0.51,0.38-1.01,0.76-1.43,1.08c-4.79-0.39-9.49-0.78-14.7-1.21c-0.48-0.78-1.13-1.85-1.61-2.65 c-1.33-0.05-2.16-0.08-2.89-0.11c-1.18,1.32-3.01,1.85-3.59,4.15c0.6,0.45,1.43,1.07,2.63,1.97c0.24,0.02,1.09,0.09,2.05,0.17 c0.64,1.64,2.78,1.47,3.85,2.88c3.32,0.27,6.72,0.55,10.03,0.83c0.37,0.42,0.65,0.73,0.98,1.11c0.95,0.08,1.96,0.16,2.84,0.23 c0.47-0.38,0.8-0.65,1.36-1.11c1.64,0.14,3.51,0.29,5.15,0.42c0.57-0.46,0.89-0.73,1.25-1.02c1.25,0.1,2.53,0.21,3.8,0.31 c1-0.78,1.99-1.55,2.98-2.32c1.72,0.14,3.43,0.28,5.08,0.42c1.36-1.11,2.66-2.17,3.97-3.24c2.69-0.1,5.58-0.73,8.34-3.23 c0.81,0.07,1.66,0.14,2.46,0.2c0.86-0.7,1.74-1.31,2.48-2.05c0.91-0.92,2.09-1.13,3.24-1.54c0.95-0.34,1.65-1.82,2.48-1.82 c1.89-0.01,3.32-1.97,5.27-0.94c1.04-0.85,2.17-1.54,2.96-2.48c0.9-1.07,2.36-0.57,3.31-1.44c1.39-1.28,2.92-2.42,4.39-3.62 c2.16,0.21,3.04-2.28,4.82-2.31c2.13-0.04,2.6-2.79,4.94-2.29c0.51,0.11,1.77-0.89,1.86-1.5c0.4-2.55,2.63-2.73,4.41-3.53 c0.03-0.41,0.07-0.82,0.11-1.36c1.64-0.54,3.66-0.73,4.94-1.75c1.65-1.32,3.72-1.67,5.39-2.93c1.21,0.1,2.48,0.2,3.21,0.26 c3.78-1.49,7.1-2.8,10.36-4.09c1.14,0.09,2.21,0.18,3.08,0.25c1.61-0.73,3.06-1.39,4.73-2.15c1.02,0.08,2.29,0.19,3.52,0.29 c0.87-0.71,1.68-1.37,2.72-2.22c1.14-0.09,2.53,0.42,3.91-0.7c0.9-0.73,2.92,0.41,3.96-1.13c1.27,0.1,2.55,0.21,3.87,0.32 c0.69,0.32,0.81,1.46,1.89,1.37c1.05,0.27,1.36-0.84,2.1-1.05c1.74,0.14,3.44,0.28,5.07,0.42c0.49,0.49,0.93,0.93,1.45,1.46 c3.35,0.28,6.76,0.55,10.17,0.86c0.15,0.01,0.28,0.3,0.43,0.47c-0.06,0.56,0.2,1.22-0.65,1.73c-1.7-0.04-3.58-0.11-5.46-0.08 c-0.19,0-0.36,0.63-0.88,1.19c-0.54,0.04-0.74-0.14-1.27-0.35c-0.75-0.06-1.18-0.1-1.58-0.13c-0.52,0.39-1.01,0.77-1.53,1.16 c-1.71-0.14-3.41-0.28-4.96-0.41c-2.41,1.73-5.71,1.55-7.65,3.82c-3.07,0.61-4.83,3.07-7.28,4.72c-0.5,0.08-1.09,0.18-1.85,0.31 c-0.15,0.49-0.31,1.04-0.51,1.68c-0.57,0.47-1.23,1-1.79,1.46c-0.69,0.08-1.29,0.15-1.42,0.16c-2.24,1.64-4.09,3-5.94,4.36 c-1.81-0.2-2.41,1.48-3.66,2.16c-2.38-0.84-1.77,1.69-2.84,2.38c-0.88,0.57-1.63,1.25-2.29,1.12c-1.96,1.45-3.65,2.69-5.24,3.87 c-0.05,0.57,0.04,1.05-0.14,1.39c-0.79,1.55-1.23,3.32-2.78,4.43c-0.28,3.45-0.52,6.28-0.69,8.35c0.93,2.32,1.58,3.94,2.51,6.24 c1.01,1.15,2.55,2.9,4.15,4.71c-0.06,0.75-0.13,1.56-0.24,2.94c0.79,0.76,2.1,1.64,2.84,2.84c0.85,1.37,2.57,1.27,3.47,2.43 c1.03,1.33,2.2,2.57,3.34,3.82c0.95,1.04,2.71,1.05,3.38,2.49c0.66,1.4,2.82,0.94,3.38,2.49c1.29,0.11,2.57,0.21,4.56,0.38 c0.39,0.67,1.02,1.76,1.01,1.74c2.2,1.61,3.95,0.41,5.1,1.88c-0.07,0.81-0.13,1.63-0.2,2.46c-2.19,0.67-4.06,1.81-5.58,3.75 c-0.05,0.65-0.12,1.45-0.17,2.08c-0.6,0.83-1.29,0.41-1.9,0.47c-0.65,0.53-1.3,1.06-1.96,1.6c-0.16,0.97-0.32,1.94-0.47,2.83 c-0.99,0.24-1.76,0.43-2.49,0.61c-0.05,0.55-0.08,0.96-0.12,1.48c-0.45,0.34-0.89,0.85-1.46,1.08c-2.57,1.03-5.18,1.97-7.8,2.96 c-0.18,0.5-0.38,1.05-0.58,1.6c-0.98,0.8-1.96,1.6-2.95,2.41c-1.15,0.94-2.24,1.94-3.45,2.79c-1.06,0.74-1.49,1.81-2.11,2.83 c-0.7,1.16-2.62,1.48-2.5,3.28c-1.4,0.47-1.18,2.03-2.11,2.9c-0.81-0.07-1.65-0.14-2.38-0.2c-2.2,0.9-2.71,2.99-3.84,4.57 c-0.32,0.44-0.35,1.29-0.99,1.3c-2.23,0.02-3.11,1.89-4.65,2.91c-0.07,0.81-0.13,1.62-0.2,2.4c-0.7,0.57-1.36,1.11-2.02,1.65 c-0.41-0.03-0.84-0.07-1.22-0.1c-1.83,1.49-3.63,2.96-5.21,4.25c-1.78,0.57-3.29,1.06-4.54,1.46c-2.18,1.73-4.16,3.3-5.98,4.75 c-0.73,2.45-2.68,4.06-3.42,6.27c-1.43,0.79-2.2,2.55-4.13,2.61c-0.71,0.02-0.95,0.42-1.22,1.08c-0.51,1.23-1.34,2.34-2.07,3.57 c-0.8-0.07-1.64-0.14-2.2-0.18c-3.61,2.95-7.04,5.74-10.87,8.87c-0.57,0.98-1.43,2.46-2.23,3.84c-0.66,0-1.08-0.01-1.5-0.01 c-1.31,1.07-2.61,2.15-3.94,3.2c-0.13,0.1-0.39,0.06-0.27,0.04c-1.14-0.02-1.96-0.03-2.87-0.05c-0.2,3.66-4.21,2.88-5.77,5.02 c-0.06,0.74-0.13,1.56-0.21,2.5c-1.93,0.25-3.3,1.43-4.78,2.72c-0.54-0.04-1.21-0.26-1.78-0.11c-1.34,0.34-2.63,0.86-3.95,1.3 c-0.45,0.62-0.11,1.65-1.18,2.01c-0.34-0.03-0.76-0.06-1.4-0.12c-0.18,3.63-4.39,2.99-6.01,5.24c-0.29,0.93,0.29,2.09-0.84,2.87 c-1.22-0.1-2.49-0.21-3.83-0.32c-1.71,2.16-4.9,2.16-6.68,4.25c-0.11,0.13-0.36,0.14-0.53,0.19c-1.02,0.09-2.15-0.62-2.99,0.4 c-0.13,0.59,0.14,1.3-0.68,1.67c-0.96,0.03-1.99,0.06-2.91,0.09c-0.91,0.75-1.73,1.41-2.66,2.18c-1.2-0.8-1.74,0.49-2.61,0.87 c-0.45-0.45-0.88-0.88-1.2-1.21c-1.43-0.12-2.7-0.22-3.89-0.32c-0.89,0.73-1.71,1.4-2.55,2.08c-6.15-0.51-12.31-1.01-18.32-1.51 c-0.41-0.47-0.69-0.79-1.01-1.15c-1.66-0.14-3.37-0.28-5.02-0.41c-1.93-1.85-4.61-2.54-6.59-4.4c-1.18-0.1-2.45-0.2-3.38-0.28 c-2.18-1.67-4.23-2.87-6.71-3.28c-0.69-0.79-1.39-1.58-2.08-2.38c-0.86-0.07-1.72-0.14-3.28-0.27c-0.39-0.67-1.02-1.76-1.57-2.7 c-1.15-0.09-1.99-0.16-2.74-0.23c-1.64-1.68-2.81-3.6-5.11-4.55c-1.23-0.51-1.58-2.48-3.42-2.41c-0.71-0.96-0.33-2.42-1.57-3.15 c-0.86-0.5-1.76-0.94-2.53-1.55c-0.65-0.52-1.05-1.66-1.71-1.79c-1.17-0.23-1.78-1.36-2.56-1.48c-1.53-0.25-2.05-1.33-2.97-2.19 c0.06-0.78,0.13-1.6,0.23-2.79c-0.72-0.72-1.73-1.53-2.46-2.53c-0.64-0.88-2.44-0.25-2.37-1.55c0.09-1.53-1.14-2.09-1.82-3.09 c-0.41-0.03-0.84-0.07-2.16-0.18c-0.29-0.58-0.87-1.71-1.36-2.69c-1.17-0.1-2.01-0.17-2.92-0.24c-0.29-1.01-1.7-1.36-1.39-3 c0.81-0.75,1.84-1.7,2.94-2.72c-0.79-1.85-1.56-3.62-2.31-5.36c0.09-1.08,0.17-2.11,0.27-3.24c-0.66-0.69-1.56-1.39-1.03-2.6 c0.44-0.39,0.91-0.8,1.3-1.15c0.08-0.91,0.14-1.73,0.29-3.51c-0.52-0.32-1.64-0.99-2.37-1.44c0.04-1.33,0.06-2.13,0.08-2.77 c-0.85-0.96-1.54-1.75-2.27-2.58c0.07-0.79,0.13-1.61,0.2-2.42c-0.41-0.51-0.81-0.99-1.19-1.46c0.51-6.21,1.02-12.41,1.53-18.57 c0.49-0.44,0.95-0.85,1.35-1.2c0.63-1.33-0.8-1.84-1.1-3.04c0.11-1.38,0.25-3.01,0.37-4.45c-0.46-0.66-0.81-1.15-0.98-1.4 c-0.41-1.59,1.37-1.69,1.46-3.32c0.04-0.24,0.16-1.03,0.24-1.58c0.57-0.46,0.9-0.73,1.25-1.02c0.07-0.8,0.13-1.62,0.2-2.47 c-0.37-0.46-0.76-0.94-1.14-1.41c0.07-0.84,0.14-1.66,0.2-2.44c0.49-0.44,0.96-0.86,1.33-1.19c0.14-1.75,0.28-3.39,0.41-4.92 c-0.44-0.59-0.8-1.08-1.12-1.5c0.09-1.14,0.11-2.19,0.28-3.21c0.16-0.98,1.63-1.23,1.52-2.49c-0.09-0.99,0.13-2,0.19-2.74 c0.61-0.5,0.94-0.77,1.26-1.03c0.52-2.17,0.22-4.47,0.8-6.44c0.53-0.44,0.86-0.7,1.09-0.89c0.59-1.84,0.05-3.76,0.68-5.17 c0.63-0.55,0.95-0.82,1.28-1.11c0.07-0.81,0.13-1.63,0.2-2.4c0.5-0.45,0.96-0.87,1.44-1.31c0.14-1.64,0.27-3.28,0.4-4.86 c0.39-0.32,0.72-0.59,1.29-1.05c0.16-1.99,0.35-4.21,0.5-6.06c0.71-0.74,1.13-1.17,1.6-1.66c0.2-2.45,0.4-4.9,0.59-7.21 c0.96-0.79,1.78-1.46,2.62-2.14c0.07-0.81,0.13-1.63,0.22-2.64c1.83-0.43,1.34-2.72,2.96-3.56c0.13-1.6,0.27-3.24,0.4-4.85 c1.35-0.59,2.85-0.76,3.84-1.97c0.19-0.92,0.39-1.89,0.57-2.77c0.42-0.34,0.75-0.61,1.07-0.88c0.19-1.38,0.38-2.77,0.56-4.07 c1-0.24,1.77-0.43,2.5-0.61c0.08-0.96,0.15-1.79,0.21-2.6c0.48-0.42,0.95-0.84,1.44-1.27c0.07-0.8,0.13-1.62,0.24-2.91 c0.81-0.47,1.91-1.09,2.78-1.6c-0.22-1.97,0.71-3.04,1.72-4.37c0.08-0.98,0.18-2.18,0.27-3.32c1.66-0.53,3.16-1.01,4.8-1.53 c2.35-1.92,4.8-3.92,7.26-5.93c0.06-0.4,0.12-0.8,0.18-1.2c2.4-1.05,4.95-1.93,5.74-4.78c2.62-1.73,3.72-4.81,6.45-6.51 c2.15-1.33,3.97-3.15,5.93-4.76c0.05-2.27,2.41-2.66,3.54-4.05c2.31,0.28,3.2-1.73,4.71-2.72c2.44-1.59,4.23-4.02,7.38-5.36 c0.97-0.42,1.48-1.12,2.29-0.68c0.01,0.37,0,0.74-0.07,1.42c-0.08,0.93-0.13,1.55-0.5,2.44c-1.39,1.52-2.49,2.77-2.69,4.8 c0.08,1.22-0.42,1.78-1.07,2.4c-0.53,0.5-0.69,1.35-0.97,1.96c-0.75,0.09-1.35,0.17-1.75,0.22c-0.72,1.14-1.34,2.13-2.17,3.44 c-0.07,0.83-0.17,2.04-0.25,3c-0.59,0.63-1,1.07-1.46,1.57c-0.1,1.21-0.2,2.4-0.29,3.55c-0.93,0.23-1.69,0.42-2.45,0.62 c-0.08,0.93-0.14,1.75-0.21,2.57c-0.49,0.43-0.96,0.84-1.44,1.26c-0.07,0.81-0.13,1.63-0.2,2.43c-0.48,0.43-0.95,0.84-1.44,1.26 c-0.24,2.89-0.48,5.77-0.71,8.56c-0.52,0.48-0.96,0.9-1.28,1.2c-0.11,1.39-0.22,2.61-0.3,3.62c0.65,0.82,1.17,1.48,1.62,2.05 c1.42,0.12,2.7,0.22,3.97,0.33c0.96-1.03,1.33-2.39,2.52-3.32c1.05-0.82,1.66-2.16,2.59-3.45c0.08-1,0.18-2.23,0.28-3.41 c0.63-0.59,1.28-0.98,1.48-1.93c0.23-1.1,1.78-1.68,1.5-3.11c-0.27-1.38,1.87-1.67,1.54-3.1c1.02-0.74,1.16-2.14,1.99-2.85 c1.17-1,0.9-2.2,1.12-3.32c0.48-0.43,0.95-0.84,1.44-1.27c0.07-0.82,0.13-1.63,0.2-2.4c0.7-0.57,1.36-1.11,2-1.63 c0.61-0.08,1.29,0.33,1.79-0.31c0.75-0.97-0.06-2.34,1.13-3.34c1-0.85,1.52-2.22,2.23-3.32c0.09-1.08,0.17-2.12,0.26-3.15 c1.92-1.76,2.61-4.33,4.34-6.25c0.44-0.49,0.19-1.56,0.24-2.21c1-0.81,1.82-1.48,2.71-2.21c0.1-1.16,0.2-2.38,0.34-4.08 c1.34-0.85,2.93-1.87,4.64-2.97c-1.02-1.97,0.23-2.92,1.19-3.99c-0.66-1.88,1.76-2.82,1.56-4.33c-0.23-1.75,1.94-2.18,1.69-3.73 c2.04-0.75,1.07-2.89,2.03-4.15c0.83-1.09,1.59-2.23,2.54-3.58c0.08-0.93,0.18-2.16,0.32-3.93c0.79-0.42,1.91-1.02,2.64-1.4 c0.19-1.78,0.01-3.11,1.56-3.77c0.13-1.6,0.27-3.24,0.42-5.07c1.45-1.03,2.98-2.13,4.36-3.11c-0.5-1.74,1.01-2,1.38-2.9 c0.08-1.01,0.16-2.03,0.26-3.04c1.26-1.85,2.62-3.06,2.8-4.42c0.21-1.54,1.37-2.41,1.72-3.71c0.42-1.56,2.12-1.9,2.94-3.2 c0.09-1.12,0.19-2.35,0.29-3.52c0.88-0.72,2.18-1.26,2.4-2.08c0.33-1.26,1.5-1.87,1.83-2.98c0.17-0.59,0.12-1.23,0.18-1.94 c0.9-0.77,1.84-1.58,2.81-2.41c0.07-0.8,0.13-1.63,0.2-2.44c1.47-0.44,1.1-2.1,2.01-2.79c0.68-0.08,1.27-0.15,1.94-0.23 c-0.07-1.98,0.96-3.52,1.95-4.91c1.05-1.48,2.7-2.56,4.15-3.87c0.06-0.72,0.13-1.54,0.2-2.46c2.2-0.96,3.1-3.1,4.17-4.94 c0.67-1.14,1.42-2.26,2.5-2.39c1.22-0.15,1.91-0.74,2.68-1.38c1.78-1.47,3.52-2.99,5.05-4.3c2.52,0.21,4.65,0.38,6.74,0.56 c0.86,1.01,1.64,2.14,3.11,0.85c0.07-0.81,0.13-1.64,0.21-2.6c-0.22-0.22-0.68-0.48-0.78-0.83c-0.39-1.36-1.08-2.49-1.95-3.66 c-1.05-1.42-3.07-1.32-3.92-2.82c-1.5,0.35-1.85-1.41-3.22-1.59c-1.45-0.2-2.3,0.72-3.45,0.99c-0.76,0.18-1.64-0.09-2.29-0.14 c-1.98,2.29-5.04,2.45-6.96,4.38c-0.28,0.28-1.23-0.16-1.64,0.37c-0.19,0.63-0.36,1.19-0.51,1.68c-0.91,0.22-1.68,0.41-2.4,0.58 c-0.05,0.56-0.08,0.97-0.12,1.44c-1.29,1.04-3.1,1.86-3.79,3.22c-0.79,1.56-1.97,2.52-3.43,3.81c-0.13,1.56-0.28,3.37-0.46,5.63 c-2.14-1.12-2.71,0.67-3.9,1.47c-0.13,1.62-0.27,3.26-0.37,4.47c-1.23,2.1-3.44,2.62-4.38,4.75c-0.86,1.96-3.15,2.99-5.39,3.68 c-0.1,1.22-0.2,2.45-0.3,3.64c-1.35,1.1-3.22,1.94-3.82,3.3c-0.73,1.65-2.05,2.47-3.19,3.59c-0.07,0.83-0.14,1.65-0.2,2.45 c-0.48,0.42-0.95,0.84-1.44,1.26c-0.14,1.64-0.27,3.29-0.41,4.95c-1.06,0.5-1.16,1.57-1.69,2.38c-0.64,0.97-1.83,1.6-2.71,2.31 c-0.12,1.47-0.22,2.67-0.31,3.75c-0.97,0.78-1.8,1.44-2.61,2.1c-0.07,0.84-0.14,1.67-0.21,2.49c-1.62,0.52-1.45,2.29-2.46,3.34 c-1,1.03-0.71,2.89-1.94,4.2c-0.67,0.71-0.3,2.33-0.35,2.92c-1.65,2.06-2.25,4.17-4.3,4.92c-0.11,1.37-0.22,2.61-0.31,3.82 c-0.49,0.43-0.95,0.84-1.4,1.24c0.15,1.55-0.95,2.57-1.47,3.81c-0.71,1.71-2.29,2.3-3.33,3.52c-2.58,0.15-3.86,2.25-5.71,3.5 c-2.71-0.14-3.67,2.51-5.78,3.38c-0.62-0.1-1.25-0.14-1.61,0.3c-0.21,0.69-0.38,1.24-0.59,1.97c-1.99-0.24-3.22,0.54-3.85,2.34 c-0.24,0.69-1.02,1.21-1.58,1.79c-0.74,0.77-2.01,0.07-2.81,1.06c-0.58,0.72-1.44,1.25-2.57,1.55c-1.76,0.47-3.18,1.7-4.05,3.44 c-0.43,0.86-1.32,1.51-1.95,2.2c-0.55-0.05-0.98-0.08-1.27-0.1c-3.15,1.79-4.99,5.18-8.8,5.89c-2.78,2.27-5.59,4.52-8.32,6.85 c-0.39,0.33-0.42,1.06-0.62,1.61c-1.47,1.2-2.95,2.41-4.42,3.61c-0.59,0.1-1.19,0.2-1.8,0.3c-0.5,1.06-0.8,2.38-2.06,2.81 c-1.5,0.5-0.83,2.29-2.07,2.87c-0.42-0.03-0.84-0.07-1.26-0.1c-0.66,0.54-1.32,1.08-1.93,1.57c-0.19,0.6-0.36,1.16-0.51,1.65 c-0.9,0.22-1.67,0.41-2.4,0.58c-0.05,0.56-0.08,0.97-0.11,1.29c-1.23,2.15-4.46,1.39-5.63,3.98c-0.08,0.92-0.18,2.13-0.27,3.24 c-0.93,0.76-1.75,1.43-2.57,2.1c-0.06,0.4-0.12,0.8-0.19,1.21c-1.5,0.56-3.07,1.02-4.12,2.42c-0.06,0.76-0.13,1.58-0.19,2.32 c-0.51,0.47-0.96,0.89-1.44,1.34c-0.13,1.64-0.27,3.27-0.4,4.84c-1.39,1.13-2.7,2.2-4.01,3.27c-0.06,0.4-0.12,0.8-0.19,1.26 c-0.91,0.78-1.86,1.6-2.82,2.42c-0.1,1.23-0.2,2.46-0.31,3.71c-1.04,0.5-1.2,1.52-1.68,2.38c-0.48,0.85-1.83,1.24-2.31,2.08 c-0.49,0.86-0.94,1.67-1.57,2.46c-0.54,0.69-0.4,1.89-0.53,2.68c-0.94,0.57-1.96,0.01-2.52,0.88c-0.24,2.86-0.47,5.75-0.74,8.97 c-2.23-0.44-0.78,1.95-2.01,2.51c-0.62,0.07-1.22,0.14-1.95,0.22C6.16,330.19,3.08,367.54,0,404.91 c0.34,0.46,0.71,0.95,1.11,1.48c-0.1,1.22-0.2,2.44-0.3,3.63c1.64,0.57,0.41,2.44,1.68,3.11c0.43,0.06,0.85,0.11,1,0.13 c1.14,1.22,2.17,2.29,3.15,3.39c0.1,0.11-0.02,0.4-0.03,0.54c0.1,1.24-1.76,1.3-1.52,2.41c0.1,1.28,1.22,1.77,1.75,2.63 c0.43,0.04,0.86,0.07,1.29,0.11c1.53,1.74,3.06,3.49,4.57,5.22c0.6,0.2,1.17,0.4,1.74,0.59c0.2,0.74,0.41,1.48,0.61,2.22 c0.97,0.08,1.81,0.15,2.6,0.21c1.37,0.97,1.89,2.63,3.87,3.05c1.39,0.29,1.64,2.15,2.02,3.5c1.9,0.23,2.69,1.79,3.8,2.96 c2.09-0.05,2.52,1.97,3.91,2.93c0.78,0.06,1.62,0.13,3.01,0.25c0.46,0.77,1.09,1.85,1.49,2.52c1.43,0.19,2.25,0.29,2.91,0.38 c0.84,0.95,1.54,1.75,2.24,2.54c1.02,0.13,2.03,0.27,2.99,0.39c0.04,1.82,0.88,2.91,2.1,3.88c1.21,0.1,2.49,0.21,3.72,0.31 c0.18,0.2,0.35,0.35,0.45,0.52c0.93,1.63,3.54,0.09,4.26,2.11c2.29,0.3,4.58,0.61,6.62,0.88c0.65,0.56,1.1,0.96,1.43,1.24 c1.29,0.11,2.36,0.19,3.51,0.29c0.39,0.4,0.83,0.83,1.32,1.33c0.77,0.06,1.62,0.13,2.46,0.2c0.44,0.47,0.87,0.93,1.31,1.39 c0.84,0.07,1.69,0.14,2.52,0.21c0.45,0.47,0.88,0.92,1.33,1.4c1.71,0.14,3.41,0.28,5.07,0.42c0.32,0.36,0.6,0.68,1.09,1.23 c1.64,0.14,3.51,0.29,5.15,0.42c0.49,0.55,0.77,0.87,1.14,1.3c12.92,1.06,25.94,2.14,38.93,3.21c0.69-1.48,2.38-0.63,3.33-1.57 c0.83-0.82,2.5-0.32,3.21-1.53c0.83-1.42,2.84-0.64,3.75-1.9c3.34,0.08,6.01-1.79,8.98-2.71c-0.13-1.67,1.37-2.03,2.17-2.91 c2.78,0.46,3.02-2.14,4.47-3.46c0.76,0.06,1.6,0.13,2.36,0.19c2.21-1.81,4.38-3.5,6.46-5.29c2-1.73,5.14-1.85,6.54-4.4 c0.12-0.76-0.06-1.9,0.42-2.3c1.41-1.18,1.47-3.42,3.65-4.02c1.3-0.09,2.79,0.81,4.18-0.15c0.16-1,0.32-1.97,0.47-2.9 c2.66-0.07,3.71-1.69,4.56-3.54c0.6-0.08,1.2-0.16,1.74-0.23c1.07-1.29,2.97-1.73,3.31-3.62c0.09-0.49,0.74-1.03,1.27-1.26 c1.5-0.64,3.11-1.02,4.24-2.32c0.23-0.27,0.7-0.43,1.08-0.47c1.66-0.16,2.43-1.06,3.05-2.54c0.66-1.57,2.15-2.83,2.79-4.4 c0.45-1.09,1.23-1.85,2.06-2.14c1.17-0.42,2.51-0.29,2.34-2.03c2.66-1.69,3.61-4.96,6.47-6.48c0.29-0.15,0.38-0.66,0.56-1 c0.03-0.41,0.07-0.83,0.13-1.55c1.03-1.39,2.25-2.06,3.77-2.21c0.46-1.47,3.31,0.12,3.08-2.23c1.07-0.97,2.11-1.98,3.23-2.9 c0.62-0.5,1.7,0.13,2.25-0.75c0.13-0.53-0.17-1.25,0.68-1.64c0.94-0.03,1.96-0.06,2.97-0.08c0.4-1.19,1.33-2.03,1.84-3.03 c0.8-1.55,1.56-2.78,3.58-2.62c1.3-1.34,3.67-0.96,4.71-2.7c0.13-0.57-0.15-1.29,0.62-1.64c2.67,0.23,3.22-1.98,4.33-3.55 c0.42,0.03,0.84,0.07,1.3,0.11c1.62-1.33,3.25-2.67,4.9-4.02c-0.16-0.92,0.41-1.44,1.04-2.06c0.52-0.51,0.69-1.36,1.01-2.06 c0.96,0.08,1.81,0.15,2.61,0.22c1.68-1.25,3.59-2.22,4.11-4.4c2.21-1.91,4.85-3.53,6.51-5.82c1.77-2.44,4.41-3.75,6.28-5.88 c1.31,0.36,2.07-0.37,2.84-1.07c2.57,0.21,5.15,0.42,7.7,0.63c0.51-0.39,1.01-0.77,1.52-1.16c2.99,0.25,5.99,0.49,8.95,0.74 c0.36-0.3,0.69-0.56,1.26-1.03c3.78,0.31,7.8,0.64,11.59,0.96c0.57-0.47,0.9-0.73,1.47-1.2c2.06,0.17,4.37,0.36,6.44,0.53 c0.57-0.47,0.9-0.73,1.47-1.2c5.51,0.45,11.24,0.93,16.74,1.38c0.57-0.46,0.9-0.73,1.32-1.08c5.04,0.42,10.18,0.84,15.31,1.25 c0.17,0.01,0.35-0.19,0.52-0.29c0.33-0.27,0.65-0.53,0.99-0.81c7.71,0.64,15.43,1.27,23.13,1.91c0.51-0.39,1.01-0.76,1.53-1.15 c3.84,0.32,7.69,0.63,11.49,0.95c0.55-0.4,1.05-0.77,1.57-1.15c6.42,0.53,12.84,1.06,19.21,1.58c0.71-0.53,1.23-1.28,2.27-1 c0.57,0.41,1.15,0.82,1.71,1.22c0.44-0.36,0.77-0.62,1.22-0.99c3.52,0.29,7.15,0.59,10.78,0.89c0.21,0.02,0.44,0.08,0.64,0.04 c0.19-0.04,0.36-0.18,0.71-0.36c0.35-0.77,1.18-0.82,2.18-0.61c1.48-1.64,3.8-2.5,5.23-4.92c4.59-2.47,4.2-6.93,5.74-10.76 c1.69-1.04,1.49-3.13,3-4.07c0.2-2.41,0.4-4.87,0.6-7.26c0.4-0.33,0.73-0.59,1.26-1.02c1.56-18.97,3.14-38.11,4.7-57.08 c0.53-0.43,0.85-0.7,1.41-1.15c0.44-5.31,0.89-10.82,1.33-16.13c0.56-0.46,0.89-0.72,1.44-1.18c0.47-5.72,0.96-11.65,1.43-17.37 c0.56-0.46,0.89-0.72,1.44-1.18c0.47-5.72,0.96-11.65,1.43-17.37c0.56-0.46,0.89-0.72,1.44-1.17 c0.71-8.62,1.44-17.44,2.15-26.06c0.55-0.45,0.88-0.72,1.27-1.04c0.71-8.6,1.42-17.26,2.15-25.92c0.01-0.16,0.25-0.3,0.38-0.45 c0.33-0.27,0.65-0.53,0.98-0.8c-0.39-0.48-0.77-0.96-1.13-1.41c0.1-1.26,0.21-2.49,0.3-3.66c0.5-0.46,0.96-0.87,1.32-1.21 c0.35-1.04-0.19-1.66-0.79-2.27c-0.13-0.13-0.15-0.35-0.15-0.34c0.29-3.46,0.56-6.74,0.82-9.93c0.42-0.35,0.75-0.61,1.31-1.07 c0.34-4.06,0.69-8.35,1.02-12.41c0.56-0.46,0.89-0.73,1.29-1.05c-0.34-0.45-0.68-0.91-1.07-1.43c0.06-0.73,0.13-1.55,0.2-2.43 c0.41-0.36,0.88-0.77,1.36-1.19c0.34-4.11,0.68-8.24,1.02-12.35c-0.4-0.49-0.8-0.97-1.16-1.4c0.24-2.94,0.48-5.82,0.71-8.64 c0.5-0.46,0.96-0.88,1.31-1.2c0.21-2.59,0.42-5.05,0.61-7.46c-0.56-0.69-1.34-1.2-1.04-2.2 C467.03,89.49,467.46,88.93,467.87,88.4z M142.26,155.75C142.29,155.62,142.34,155.53,142.26,155.75L142.26,155.75z M311.5,288.02c-0.34,0.32-0.8,0.73-1.3,1.2c-0.1,1.17-0.2,2.4-0.3,3.6c-1.6,1.84-2.74,3.93-3.08,5.62 c-0.83,2.14-3.98,2.41-4.3,4.96c-1.75,1.5-3.5,3-5.32,4.56c-0.16,0.46-0.36,1-0.55,1.53c-0.49,0.7-1.18,0.28-1.79,0.32 c-1.31,0.74-1.86,2.01-2.64,3.19c-0.78,1.17-2.12,2.06-3.38,2.82c-1.34,0.81-1.48,2.35-2.54,3.28 c-0.43-0.04-0.86-0.07-1.43-0.12c-0.3,0.66-0.54,1.4-0.95,2.05c-0.83,1.32-2.53,1.18-3.73,1.91c0.57,1.71-2.22,1.98-1.68,3.68 c-1.13,0.95-2.27,1.89-3.37,2.8c-0.51-0.04-0.93-0.08-1.51-0.12c-0.3,0.66-0.48,1.48-0.97,2.04c-0.69,0.78-1.6,1.36-2.41,2.03 c-0.17,0.57,0.14,1.29-1.09,1.87c-0.5-0.93-1.06-1.99-1.41-2.65c-1.93-0.16-3.21-0.26-4.47-0.37c-0.45-0.48-0.88-0.93-1.33-1.4 c-0.84-0.07-1.7-0.14-2.66-0.22c-0.95-2.16-3.24-2.96-5.12-4.08c-2.11-1.26-4.3-2.32-5.75-4.33c-0.63-0.88-1.63-1.12-2.49-1.63 c-0.93-0.56-2.18-1.51-1.93-3.38c-1.11-1.47-1.04-2.98-2.26-3.99c-1.13-0.94-2.06-2.14-2.94-3.31 c-0.71-0.94,0.18-2.56-1.32-2.77c-0.2-1.41,0.75-1.74,1.15-2.4c0.4-0.65,0.35-1.56,0.59-2.85c0.7-0.43,1.78-1.08,2.6-1.58 c0.07-0.84,0.1-1.25,0.15-1.77c1.27-1.01,2.64-2.01,3.89-3.13c1.07-0.95,2.69-1.51,3.06-2.98c0.48-1.88,2.55-2.08,3.25-3.46 c0.61-0.01,1.02-0.02,1.26-0.02c1.57-0.22,0.68-1.93,1.97-2.33c0.25,0.02,0.68,0.06,1.08,0.09c2.04-1.39,3.58-3.46,6.24-3.88 c0.04-0.41,0.07-0.83,0.11-1.36c0.81-0.49,1.64-1.1,2.57-1.53c1.43-0.67,3.28-0.75,4.35-1.81c1.26-1.25,3.1-1.07,4.32-2.22 c1.67-1.58,3.82-2.14,6.11-2.27c0.39-0.02,0.98-0.02,1.14-0.25c0.92-1.33,3.16-0.05,3.5-1.83c2.86,0.24,5.42,0.45,7.92,0.65 c0.46,0.46,0.87,0.86,1.3,1.29c1.22-1.25,0.57-2.8,0.9-4.16c-0.73-1.66-2.96-0.12-3.75-1.67c1.36-1.15,2.87-0.13,4.3-0.26 c1.51,0.66,1.71,3,3.87,2.82c0.63,1.47,2.39,1.41,3.46,2.39c1.11,1.02,2.76,1.49,4.23,2.23c1.21,1.38,2.47,2.81,3.94,4.47 c-0.1,1.17-0.21,2.57-0.31,3.72c0.49,0.55,0.77,0.87,1.11,1.26C311.71,285.43,311.61,286.65,311.5,288.02z"></path><path d="M228.93,301.14C228.84,301.23,228.83,301.4,228.93,301.14L228.93,301.14z"></path></g></g></g><g id="change3_1"><path fill="#5f8a42" d="M315.59,50.39c-1.2-0.69-1.88-1.26-2.27-1.98c-0.26-0.47-0.33-1.19,0.72-1.82c2.34,0.19,5.06,0.42,7.57,0.62 c0.57-0.46,0.89-0.73,1.22-1c12.11,0.42,20.3,1.23,24.03,2.37c-1.35,1.18-2.86,0.14-4.44,0.29c-0.39,0.27-0.9,0.61-1.52,1.03 c-2.85-0.23-5.83-0.48-8.82-0.73c-0.53,0.38-1.03,0.74-1.59,1.15c-2.06-0.17-4.19-0.35-6.33-0.52c-0.51,0.39-1.01,0.77-1.51,1.15 C320.52,50.79,318.38,50.62,315.59,50.39z"></path></g><g id="change3_2"><path fill="#5f8a42" d="M429.32,332.38c-0.23-2.13-0.08-3.98,0.07-5.82c0.47-0.41,0.93-0.82,1.4-1.23c0.24-2.87,0.47-5.74,0.71-8.67 c0.31-0.23,0.64-0.48,0.94-0.7c0.92-1.31,0.48-2.8,0.76-4.17c0.28-1.36-0.21-2.86,0.76-4.1c0.18,0.04,0.46,0.07,0.46,0.11 c0.41,6.37-1,12.62-1.06,18.87c-0.57,0.5-1.03,0.9-1.5,1.31c-0.1,1.23-0.2,2.46-0.33,4C430.98,332.73,430.37,332.85,429.32,332.38z"></path></g><g id="change3_3"><path fill="#5f8a42" d="M242.75,57.19c-0.41,1.1-0.48,1.92-0.55,2.79c-0.3,0.22-0.64,0.46-0.9,0.66c-0.21,0.43-0.48,0.76-0.52,1.11 c-0.16,1.42-0.25,2.86-0.37,4.32c-0.31,0.24-0.64,0.5-0.94,0.72c-0.18,0.38-0.45,0.72-0.49,1.08c-0.16,1.42-0.25,2.86-0.37,4.28 c-0.65,0.53-1.29,1.06-1.96,1.6c-0.23-0.25-0.68-0.5-0.67-0.74c0.11-2.04,0.3-4.07,0.46-6.04c0.39-0.32,0.71-0.58,1.28-1.04 c0.15-1.15,0.33-2.52,0.51-3.89c0.32-0.26,0.65-0.53,1.13-0.93c0.09-1.04,0.18-2.22,0.26-3.1c0.91-1.42,1.64-2.54,2.38-3.69 c0.41,0.03,0.83,0.07,1.29,0.11C244.17,55.3,244.09,56.13,242.75,57.19z"></path></g><g id="change3_4"><path fill="#5f8a42" d="M428.61,332.06c0.97,0.08,1.61,0.13,2.58,0.21c0.2,1.47,0.08,2.91-0.03,4.34c-0.48,0.42-0.95,0.83-1.43,1.25 c-0.07,0.82-0.13,1.63-0.2,2.42c-0.69,0.56-1.34,1.09-1.99,1.63c-0.21-0.3-0.62-0.62-0.6-0.91c0.15-2.48,0.34-4.96,0.61-7.42 C427.6,333.05,428.03,332.55,428.61,332.06z"></path></g><g id="change3_5"><path fill="#5f8a42" d="M253.37,50.26c-1.13,0.33-1.63,0.71-2.13,1.1c-0.85-0.07-1.7-0.14-3.02-0.25c-0.62,0.7-1.44,1.63-1.99,2.24 c-1.21,0.02-1.78-0.16-2.13-0.76c0.03-0.4,0.07-0.81,0.1-1.23c1.14-0.93,2.28-1.86,3.45-2.81c2.28,0.14,4.57,0.37,7.09,0.55 C254.35,49.77,254.18,50.04,253.37,50.26z"></path></g><g id="change3_6"><path fill="#5f8a42" d="M234.17,78.66c0.08-1.02,0.12-1.43,0.15-1.83c0.34-0.19,0.66-0.5,1.01-0.54c0.37-0.05,0.77,0.16,1.16,0.25 c0.81,0.91,0.06,1.92,0.21,2.88c-0.3,0.27-0.6,0.54-0.99,0.88c-1.05,1.22-0.29,3-0.86,4.44c-1.34-0.23-1.62-1.28-2.41-1.91 c0.52-0.36,1.03-0.71,1.46-1.01C233.99,80.89,234.06,80.09,234.17,78.66z"></path></g><g id="change3_7"><path fill="#5f8a42" d="M292.81,47.57c2.86-0.08,5.37,0.13,7.96,0.34c0.44-0.32,0.93-0.67,1.43-1.02c0.91,0.46,0.67,1.19,0.44,1.92 c-0.16,0.13-0.33,0.39-0.48,0.37c-3.1-0.27-6.19-0.56-9.28-0.88C292.72,48.29,292.6,48.01,292.81,47.57z"></path></g><g id="change3_8"><path fill="#5f8a42" d="M416.74,351.3c-0.77,0.25-1.19,0.21-1.61,0.18c-0.55-0.43-0.66-0.99-0.43-2.12c1.01-0.6,2.38-1.41,3.77-2.23 c0.64,0.67-0.12,1.71,0.06,2.93C418.13,350.32,417.61,350.67,416.74,351.3z"></path></g><g id="change3_9"><path fill="#5f8a42" d="M453.67,156.25c0.54,0.05,0.91,0.4,0.88,0.71c-0.17,1.73-0.05,3.52-0.9,5.95 C452.5,160.27,453.37,158.38,453.67,156.25z"></path></g><g id="change3_10"><path fill="#5f8a42" d="M219.65,264.55c0,0,14.51-144.55,17.48-161.96s3.83-39.48,25.76-40.36c21.93-0.88,124.03-0.32,148.59-0.32 s45.63,2.62,42.82,23.65S421.54,314.2,421.54,314.2s-2.48,25.52-25.21,25.52c-22.72,0-100.85,2.38-100.85,2.38 s23.37-18.5,28.04-30.69c4.67-12.19,4.12-44.84-31.84-53.47c-11.13-2.67-22.59-4.69-32.39-4.05 C237.42,255.31,219.65,264.55,219.65,264.55z"></path></g><g id="change2_5"><path d="M246.28,79.94c1.78-1.37,0.95-2.98,1.47-4.8c0.49-0.32,1.35-0.87,2.24-1.45c0.34,0.07,0.75,0.15,1.19,0.24 c0.86,1.37,0.02,2.78,0.12,4.18c-0.47,0.41-0.93,0.83-1.42,1.25c-0.24,2.87-0.47,5.76-0.71,8.64c-0.34,0.28-0.67,0.55-1.24,1.02 c-0.13,1.58-0.28,3.38-0.41,4.96c-0.57,0.47-0.9,0.73-1.37,1.12c-0.19,2.31-0.39,4.75-0.59,7.21c-0.47,0.49-0.89,0.92-1.6,1.66 c-0.25,3.09-0.54,6.55-0.81,9.78c-0.57,0.47-0.9,0.73-1.29,1.06c-0.23,2.81-0.47,5.69-0.71,8.57c-0.48,0.44-0.94,0.86-1.44,1.32 c-0.34,2.13-0.19,4.4-0.76,6.68c-0.8-0.07-1.38-0.11-1.92-0.16c-0.8-1.47-0.09-2.88-0.11-4.28c0.33-0.27,0.65-0.53,1.03-0.84 c0.76-1.26,0.5-2.7,0.57-4.05c-0.4-0.52-0.77-1.01-1.05-1.38c-0.16-1.13,0.52-1.62,1.45-2.27c0.2-2.45,0.42-5.08,0.62-7.49 c0.57-0.47,0.9-0.73,1.47-1.2c0.13-1.58,0.28-3.38,0.41-4.96c0.57-0.47,0.9-0.73,1.26-1.03c0.44-5.33,0.88-10.7,1.32-16.07 c0.48-0.42,0.95-0.83,1.43-1.25C245.59,84.36,245.76,82.29,246.28,79.94z"></path></g><g id="change2_6"><path d="M236.66,212.59c0.29-3.5,0.53-6.39,0.76-9.27c0.65-0.71,1.39-0.74,2.2-0.26c0.12,0.16,0.37,0.33,0.36,0.49 c-0.11,1.65-0.25,3.29-0.38,4.88c-0.51,0.45-0.97,0.86-1.37,1.23c-0.23,0.96,0,1.7,0.95,2.19c-0.15,1.84-0.3,3.64-0.45,5.43 c-0.34,0.27-0.66,0.54-1.11,0.91c-0.5,6.04-1,12.19-1.51,18.37c-0.44,0.46-0.85,0.89-1.55,1.62c-0.19,2.26-0.4,4.89-0.6,7.3 c-0.56,0.46-0.88,0.72-1.45,1.18c-0.13,1.58-0.28,3.38-0.45,5.46c-2.08-1.34-0.64-2.91-0.91-4.31c-0.33-0.41-0.71-0.9-1.13-1.43 c0.06-0.76,0.13-1.58,0.2-2.43c0.43-0.38,0.9-0.79,1.37-1.2c0.65-7.83,1.29-15.65,1.93-23.44c0.51-0.92,1.5-0.46,2.2-0.74 c0.17-0.15,0.45-0.27,0.47-0.42C236.35,216.51,236.48,214.86,236.66,212.59z"></path></g><g id="change2_1"><path d="M364.07,120.11c0.44,0.22,0.7,0.24,0.96,0.26c0.34,0.39,0.68,0.78,1.06,1.21c-0.12,1.77-0.24,3.58-0.36,5.46 c-0.22,0.21-0.76,0.51-0.73,0.72c0.14,0.93-0.92,1.16-1,1.96c-0.09,0.87-0.93,1.23-1.53,1.62c-0.8,0.52-0.74,1.58-1.51,2.04 c-0.26,0-0.51,0-0.48,0c-1.18,0.94-2.18,1.75-3.1,2.48c-0.04,0.64-0.08,1.14-0.11,1.71c0.46,0.2,0.92,0.36,1.33,0.6 c0.21,0.12,0.33,0.39,0.44,0.55c1.12,0.07,2.16,0.14,2.99,0.2c1.03-0.51,1.91-0.94,2.78-1.37c1.96,0.44,3.34-1.65,5.21-1.23 c1.4-1.23,2.76-2.42,3.79-3.33c1.34-0.47,2.26-0.75,3.15-1.12c0.34-0.14,0.59-0.5,0.92-0.78c0.14-0.84,0.28-1.7,0.42-2.57 c1.23-0.56,0.23-2.35,1.59-2.84c0.03-0.52,0.07-1.03,0.11-1.59c1.08-0.9,2.17-1.82,3.21-2.68c-0.01-1,0.67-1.41,1.32-2 c1.55,0.1,3.2,0.21,4.86,0.32c0.76,0.87,1.53,1.75,2.38,2.72c-0.08,1.19-0.16,2.46-0.26,3.88c-0.19,0.26-0.5,0.64-0.76,1.05 c-0.2,0.3-0.26,0.73-0.52,0.94c-0.49,0.4-0.26,0.96-0.44,1.4c-0.33,0.77-0.6,1.71-1.2,2.19c-1,0.8-1.4,1.95-2.13,2.9 c0.51,0.58,1.22,0.21,1.82,0.4c0.17,0.2,0.34,0.39,0.51,0.59c0.09,0.08,0.18,0.23,0.28,0.23c4.92,0.34,9.84,0.67,14.74,0.99 c0.44,0.91,1.26,0.78,2,0.95c0.69,0.16,1.06,1.04,2.09,1.01c0.03,1.15-0.11,2.28-0.19,3.37c-0.71,0.63-1.38,1.24-2.05,1.84 c-0.54-0.04-1.05-0.07-1.55-0.1c-0.31,0.25-0.61,0.49-0.93,0.74c-3.88-0.26-7.77-0.52-11.62-0.78c-0.23,0.2-0.42,0.37-0.8,0.7 c-0.58-0.04-1.41,0.08-2.08-0.18c-0.78-0.31-1.4-1.09-2.37-0.89c-0.9,0.19-1.26-0.78-1.97-0.89c-0.77-0.12-1.55-0.08-1.97-0.92 c-0.51-0.03-1.02-0.07-1.53-0.1c-0.28-0.29-0.54-0.57-0.8-0.84c-0.53-0.04-1.04-0.07-1.56-0.1c-0.47,0.94-1.7,0.41-2.26,1.23 c-0.44,0.64-1.21,0.78-1.92,1.03c-0.79,0.28-1.17,1.22-2.25,1.29c-0.62,0.04-1.19,0.9-1.79,1.4c-0.52-0.03-1.03-0.07-1.5-0.1 c-0.53,0.46-1.02,0.89-1.65,1.45c-1.25-0.08-2.64-0.18-3.89-0.26c-0.34,0.3-0.54,0.47-0.76,0.67c-0.25-0.26-0.51-0.51-0.76-0.77 c-0.18,0.15-0.38,0.31-0.81,0.67c-0.9,0.02-2.03-0.11-3.15-0.2c-0.18-0.21-0.35-0.4-0.52-0.6c-0.7-0.42-1.5-0.22-2.24-0.35 c-0.92-0.58-1.77-1.42-2.77-1.69c-1.44-0.39-1.28-1.7-1.91-2.53c-0.51-0.03-1.03-0.07-1.55-0.1c-0.8,0.56-1.42,1.29-2.51,1.57 c-0.9,0.23-1.59,1.28-2.4,1.98c-0.49-0.03-1-0.07-1.51-0.1c-0.31,0.25-0.61,0.5-0.91,0.74c-0.76-0.05-1.54-0.1-2.32-0.16 c-0.2,0.17-0.39,0.34-0.59,0.51c-0.23,0.06-0.47,0.19-0.7,0.17c-2.98-0.18-5.95-0.39-8.91-0.58c-0.44-0.9-1.23-0.88-2.07-0.92 c-0.61-0.54-1.17-1.35-1.93-1.63c-0.82-0.31-1.16-0.96-1.68-1.48c-0.63-0.63-1.19-1.34-1.71-1.94c-0.53-0.04-0.92-0.06-1.5-0.1 c-1.01,1.35-3.05,1.4-4.09,2.86c-0.6-0.04-1.12-0.07-1.64-0.11c-0.4,0.83-1.34,0.56-1.96,0.96c-0.71,0.45-1.49,0.88-2.3,1.05 c-0.72,0.15-1.56-0.21-2.1,0.65c-1.79-0.12-3.6-0.24-5.4-0.36c-0.32,0.25-0.62,0.48-0.95,0.74c-0.22-0.01-0.47-0.03-0.75-0.05 c-0.25-0.26-0.51-0.54-0.79-0.83c-0.76-0.05-1.54-0.1-2.28-0.15c-0.29-0.3-0.55-0.57-0.83-0.86c-1.03-0.07-2.06-0.14-3.05-0.2 c-0.2-0.23-0.37-0.59-0.55-0.6c-1.64-0.06-2.84-1.7-4.37-1.28c-2.76,1.16-5.31,2.24-8.02,3.39c-0.46-0.03-1.11-0.07-1.85-0.12 c-0.24,0.17-0.55,0.38-0.89,0.62c-0.82,0.03-1.8,0.39-2.19-0.8c-0.6-0.04-1.11-0.07-1.63-0.11c-0.28-0.29-0.54-0.57-0.82-0.86 c-0.49-0.03-1.01-0.07-1.52-0.1c-1-1.53-2.14-1.87-7.76-4.66c-0.17-0.58-0.06-1.28-0.77-1.69c0.07-0.99,0.13-2.02,0.21-3.21 c0.25-0.23,0.61-0.58,1.06-1.01c0.8,0.05,1.67,0.11,2.56,0.17c0.37,0.62,0.2,1.52,0.97,1.95c1.06,0.59,2,1.48,3.36,1.37 c0.25,0.27,0.52,0.55,0.79,0.84c0.5,0.03,1.02,0.07,1.54,0.1c0.48,1,1.78,0.87,2.37,1.72c0.91,0.06,1.82,0.12,2.74,0.18 c0.67-0.22,1.17-0.92,2-0.79c0.43-0.77,1.4-0.39,1.97-0.95c0.51-0.5,1.51-0.23,1.93-1c0.43-0.8,1.39-0.49,1.99-0.99 c0.12-1.79,0.24-3.6,0.37-5.47c-0.2-0.25-0.44-0.55-0.69-0.86c0.07-1.01,0.14-2.05,0.21-3.08c0.27-0.26,0.54-0.51,0.79-0.76 c-0.22-0.3-0.43-0.58-0.64-0.86c0.24-0.21,0.43-0.38,0.78-0.69c0.04-0.61-0.11-1.47,0.19-2.11c0.37-0.78,0.79-1.46,0.97-2.36 c0.12-0.59,0.61-1.35,1.08-1.83c0.63-0.64,0.52-1.77,1.48-2.09c0.89-0.3,0.57-1.38,1.23-1.82c0.25,0.02,0.5,0.03,0.8,0.05 c0.75-0.69,1.52-1.38,2.33-2.12c1.53,0.1,3.06,0.2,4.7,0.31c0.92,0.8,2.41,1.12,3,2.46c0.32,0.02,0.58,0.04,0.83,0.06 c0.7,0.47,0.12,1.53,0.98,1.96c0.75,0.37,0.55,1.42,1.02,1.9c0.71,0.72,0.25,1.46,0.41,2.22c0.21,0.26,0.44,0.56,0.64,0.8 c-0.12,1.87-0.25,3.68-0.37,5.48c-1.08,0.47-0.52,1.73-1.07,2.28c-0.57,0.57-0.55,1.39-1.17,1.87c-0.71,0.56-1.37,1.19-2.05,1.78 c-0.02,0.27-0.04,0.53-0.05,0.76c-0.7,1.25-2.42,0.86-3.1,2.13c0.56,0.39,1.2,0.84,1.87,1.31c0.61,0.04,1.26,0.08,2.03,0.14 c0.23-0.15,0.53-0.36,1.07-0.71c0.53,0.04,1.28,0.1,2.05,0.13c0.63,0.02,1.49,0.25,1.85-0.06c0.71-0.63,1.43-0.37,2.16-0.48 c0.57-0.09,0.96-0.62,1.67-0.72c0.65-0.09,1.16-1.17,1.82-1.28c0.72-0.12,1.15-0.45,1.63-0.85c0.59-0.51,1.18-1.03,1.91-1.67 c0.15-2.29,0.31-4.72,0.47-7.01c0.64-0.56,1.45-0.92,1.54-1.43c0.15-0.83,0.93-1.17,1.07-1.9c0.08-0.38,0.06-0.78,0.09-1.17 c0.31-0.73,1.25-0.11,1.61-0.75c0.02-0.25,0.03-0.51,0.05-0.77c2.21-0.61,3.45-2.54,5.33-3.87c1.12,0.08,2.4,0.16,3.88,0.26 c0.12,0.11,0.39,0.36,0.77,0.7c0.38,0.03,0.88,0.06,1.3,0.09c0.89,1.07,1.71,2.06,2.73,3.28c-0.13,1.94-0.28,4.26-0.46,6.83 c-0.47,0.32-1.1,0.76-1.6,1.09c-0.03,0.51-0.05,0.77-0.07,1.12c-0.44,0.12-0.9,0.24-1.46,0.4c-0.08,0.31-0.05,0.77-0.27,0.99 c-0.73,0.74-1.89,1.25-2.24,2.11c-0.42,1.05-1.23,1.56-1.88,2.28c-0.04,0.53-0.07,1.04-0.1,1.55c0.61,0.69,1.21,1.38,1.81,2.07 c2.59,0.17,5.19,0.35,7.79,0.52c0.48-0.42,0.96-0.86,1.49-1.32c1.23,0.12,2.38-0.37,3.46-0.87c0.79-0.37,1.33-1.25,2.09-1.72 c0.72-0.44,1.71-0.43,2.26-1.33c0.06-0.96,0.13-1.99,0.18-2.64c1.08-1.87,1.98-3.43,3.04-5.26c0.93-0.81,2.15-1.8,3.27-2.88 c0.98-0.95,2.46-1.46,2.45-3.08c1.04,0.07,1.82,0.12,2.58,0.17c0.21-0.18,0.4-0.35,0.6-0.52c0.24-0.05,0.47-0.16,0.71-0.15 c0.9,0.04,1.8,0.11,2.63,0.17C363.2,119.12,363.55,119.51,364.07,120.11z"></path><path d="M286.49,204.84c0.78,0.89,1.38,1.58,1.99,2.27c-0.1,1.54-0.21,3.1-0.31,4.66c-0.18,0.16-0.37,0.34-0.56,0.51 c-0.09,0.09-0.25,0.17-0.26,0.27c-0.1,1.29-0.18,2.59-0.27,3.85c-0.52,0.45-1.01,0.88-1.6,1.4c-0.05,0.39-0.11,0.89-0.21,1.77 c-0.4,0.23-1.08,0.61-1.52,0.87c-0.07,0.98-0.36,1.6,0.06,2.3c1.47,0.1,3.01,0.2,4.87,0.33c0.35-0.3,0.84-0.98,1.51-1.24 c0.57-0.23,1.22-0.23,1.63-0.79c0.53,0.04,1.04,0.07,1.54,0.1c1.29-1.11,2.56-2.21,3.82-3.31c0.07-1.06,0.14-2.09,0.21-3.11 c0.22-0.19,0.54-0.33,0.59-0.54c0.33-1.45,0.94-2.74,1.91-3.9c0.28-0.33,0.18-0.98,0.33-1.99c0.29-0.2,0.93-0.65,1.57-1.08 c0.61-0.41,0.99-1.05,1.92-1.12c0.63-0.05,1.2-0.88,1.82-1.38c0.5,0.03,1.01,0.07,1.48,0.1c0.33-0.26,0.63-0.49,0.87-0.68 c0.68-0.11,1.02,0.26,1.35,0.74c0.58,0.1,1.19,0.21,1.72,0.31c0.48,0.33,0.23,0.75,0.28,1.12c0.42,0.48,0.85,0.97,1.36,1.55 c-0.06,0.93-0.13,1.94-0.21,3.12c-0.18,0.24-0.55,0.6-0.74,1.04c-0.15,0.34,0.02,0.81-0.13,1.15c-0.19,0.44-0.62,0.77-0.81,1.2 c-0.15,0.34-0.08,0.77-0.11,1.26c-1.39,1.21-2.83,2.48-4.2,3.67c0.07,0.43,0.1,0.67,0.17,1.08c0.57,0.07,1.18,0.15,1.76,0.22 c0.29,0.28,0.55,0.55,0.74,0.74c1.91,0.13,3.72,0.25,5.47,0.37c0.25-0.21,0.42-0.42,0.64-0.55c0.66-0.38,1.5,0.31,2.15-0.4 c0.5-0.55,1.33-0.52,1.99-0.9c0.65-0.38,1.77,0.18,2.39-0.74c1.1,0.22,1.53-0.76,2.41-1.35c0.34,0,0.84,0.01,1.49,0.01 c0.87-0.12,1.16-1.63,2.41-1.37c0.95-0.79,2.18-1.34,2.43-2.75c0.88-0.42,0.55-1.71,1.52-2.06c0.96-0.35,0.94-1.43,1.45-2.12 c0.51-0.69,1.06-1.35,1.55-2.04c0.58-0.81,1.1-1.61,1.83-2.32c0.6-0.58,0.52-1.73,2.45-2c-0.38-0.03,0.13,0.01,0.65,0.04 c0.6-0.5,1.19-0.99,1.76-1.46c1.05,0.07,2.09,0.14,2.92,0.19c0.99,1.06,1.87,2,2.71,2.91c-0.03,0.46-0.06,0.85-0.09,1.38 c0.19,0.31,0.45,0.72,0.71,1.14c-0.02,1.02-1.51,1.52-0.97,2.73c-0.06,0.11-0.09,0.24-0.18,0.31c-0.87,0.78-1.82,1.48-2.62,2.33 c-0.66,0.71-0.86,1.82-1.83,2.3c-0.26-0.02-0.52-0.03-0.75-0.05c-0.59,0.25-0.34,0.91-0.65,1.28c-1.28,1.12-2.56,2.24-3.84,3.36 c-0.32,0.84-0.33,1.72-0.2,2.6c0.63,0.37,1.41,0.49,1.82,1.15c2.09,0.14,4.16,0.28,6.19,0.41c0.95-0.62,0.95-0.62,2.38-0.61 c0.42-0.37,0.92-1.04,1.58-1.31c0.56-0.23,1.22-0.23,1.63-0.79c0.53,0.04,1.04,0.07,1.55,0.1c0.6-0.5,1.19-0.99,1.76-1.46 c0.43,0.03,0.82,0.05,1.36,0.09c0.2-0.14,0.48-0.41,0.81-0.54c0.33-0.14,0.71-0.15,1.07-0.22c0.4-0.74,0.8-1.48,1.22-2.21 c0.42-0.73,0.77-1.52,1.31-2.16c0.58-0.69,1.66-1.1,1.95-1.85c0.36-0.92,0.84-1.81,1.65-1.79c1.41,0.03,0.82-1.36,1.62-1.8 c0.75-0.41,1.77-0.31,2.28-1.13c2.08,0.14,4.16,0.28,6.22,0.42c0.28,0.9,1.35,0.63,1.83,1.26c-0.03,0.49-0.07,1.01-0.1,1.52 c0.25,0.31,0.49,0.61,0.74,0.9c-0.03,0.52-0.07,1.03-0.1,1.55c-1.02,0.45-0.86,1.77-1.8,2.35c-0.84,0.52-1.42,1.31-1.89,2.26 c-0.37,0.75-1.35,1.19-1.98,1.84c-0.72,0.75-1.88,0.55-2.6,1.44c-0.59,0.72-1.91,0.58-2.5,1.55c-0.03,0.49-0.07,1.01-0.11,1.59 c0.58,0.63,1.19,1.3,1.86,2.03c0.94,0.06,1.97,0.13,2.93,0.2c0.5,0.26,0.61,0.94,1.29,0.89c0.62,0.18,0.73-0.63,1.25-0.73 c0.51,0.03,1.02,0.07,1.47,0.1c0.35-0.27,0.65-0.49,0.92-0.69c0.71,0.05,1.36,0.09,2,0.13c0.22-0.11,0.44-0.21,0.65-0.34 c0.62-0.39,1.01-1.02,1.91-1.15c0.61-0.09,1.53-0.37,1.95-0.84c0.98-1.09,2.58-1.06,3.47-2.21c0.56-0.71,1.45-0.9,2.2-1.31 c0.72-0.4,2.14-0.22,2.04-1.68c0.68-0.6,1.47-1.12,2.03-1.82c0.53-0.66,0.76-1.52,1.52-2.07c0.45-0.32,0.6-1.04,0.97-1.5 c0.32-0.4,0.77-0.7,1.19-1.07c-0.3-1.21,0.62-2.12,1.13-3c0.5-0.87,1.33-1.93,2.69-1.88c0.83-1.01,2.62-0.45,2.99-2.05 c1.17,0.08,2.18,0.15,3.37,0.22c0.55,0.34,1.26,0.79,1.97,1.23c-0.09,1.3-0.17,2.59-0.26,3.88c-0.69,0.61-1.38,1.21-2.06,1.81 c-0.26-0.02-0.52-0.03-0.75-0.05c-0.6,0.25-0.32,0.94-0.67,1.28c-0.46,0.45-0.97,0.86-1.46,1.29c-0.02,0.9-0.03,1.81-0.96,2.34 c-0.43,1.64-1.52,2.79-2.76,3.87c-1.32,1.16-2.83,2.12-3.63,3.83c-0.31,0.66-1.05,1.12-1.44,1.51c-0.68-0.03-1.07-0.13-1.35,0.26 c-0.03,0.24-0.07,0.49-0.1,0.74c-0.19,0.14-0.36,0.36-0.57,0.42c-1.31,0.38-2.64,0.75-3.56,1.83c-0.62,0.73-1.53,0.79-2.25,1.24 c-0.76,0.48-1.39,1.17-2.13,1.82c-0.45-0.03-0.95-0.06-1.68-0.11c-0.42,0.49-0.93,1.08-1.3,1.52c-1.05-0.07-1.83-0.12-2.65-0.18 c-0.45,0.43-0.93,0.87-1.44,1.35c-1.66,0.2-3.3-0.26-4.91-0.14c-0.34,0.25-0.64,0.47-0.86,0.63c-0.73,0.11-1.02-0.34-1.39-0.79 c-0.72-0.05-1.48-0.1-2.25-0.15c-0.29-0.29-0.56-0.55-0.88-0.86c-0.7-0.05-1.47-0.1-2.19-0.15c-0.56-0.36-0.8-1.15-1.67-0.91 c-0.49-0.58-1.15-1.1-1.46-1.78c-0.39-0.87-1.47-0.46-1.84-1.23c0.02-0.25,0.03-0.5,0.05-0.75c-0.35-0.4-0.69-0.79-1.06-1.21 c-0.75-0.05-1.52-0.1-2.34-0.16c-0.25,0.21-0.55,0.45-0.86,0.7c-0.5-0.03-1.02-0.07-1.55-0.1c-0.48,0.43-0.97,0.86-1.28,1.13 c-0.83,0.67-1.75-0.22-2.32,0.56c-0.65,0.87-1.79-0.2-2.45,0.66c-0.48,0.62-1.56,0.12-1.95,1c-2.07-0.14-4.14-0.28-6.25-0.42 c-0.23-0.24-0.49-0.52-0.76-0.81c-0.76-0.05-1.54-0.1-2.32-0.16c-4.64-3.58-4.43-4.08-5.8-6.59c-0.6,0.46-1.19,1.27-1.82,1.31 c-0.83,0.04-1.23,0.77-2.06,0.81c-0.62,0.03-1.42,0.43-1.96,0.82c-0.72,0.52-1.78,0.32-2.29,1.16c-0.88-0.39-1.26,0.86-2.06,0.64 c-0.85-0.23-1.39,0.37-2.08,0.61c-0.67,0.23-1.59-0.43-1.99,0.61c-2.53-0.17-4.96-0.33-7.3-0.49c-0.25-0.28-0.42-0.48-0.62-0.71 c-0.74-0.05-1.5-0.1-2.23-0.15c-1.2-1.13-2.79-1.58-4-2.62c-0.24-0.2-0.76-0.08-1.34-0.12c-1.03,1.31-3.05,1.38-4.1,2.85 c-0.59-0.04-1.11-0.07-1.61-0.11c-0.31,0.25-0.6,0.49-0.92,0.74c-0.5-0.03-1.02-0.07-1.52-0.1c-0.51,0.44-1,0.87-1.49,1.3 c-0.24,0.03-0.49,0.1-0.73,0.09c-1.3-0.07-2.59-0.17-3.89-0.25c-1.04-0.07-2.1-0.32-3.11-0.16c-1.1,0.18-1.41-1.22-2.35-0.97 c-1.26,0.33-1.39-1.63-2.58-0.91c-0.12-0.65-0.19-1-0.26-1.35c-0.23-0.47-0.68-0.29-1.04-0.37c-0.7-0.58-1.13-1.32-1.25-2.42 c-0.72-0.05-1.48-0.1-2.23-0.15c-0.64-0.04-1.27-0.08-1.86-0.12c-0.45-1-1.3-0.84-1.84-0.9c-1.2-1.37-2.3-2.63-3.61-4.13 c0.06-0.86,0.14-2.15,0.24-3.61c0.6-0.46,1.32-1.01,2.21-1.69c0.5,0.03,1.27,0.08,2.22,0.15c0.65,0.19-0.07,1.19,0.58,1.52 c0.1-0.06,0.27-0.11,0.28-0.18c0.24-2.31,0.47-4.62,0.71-7.12c0.12-0.13,0.37-0.4,0.7-0.77c0.04-0.65,0.09-1.42,0.13-1.98 c1.39-1.22,2.66-2.32,4.09-3.58c0.21,0.01,0.72,0.05,1.22,0.08c0.31-0.25,0.61-0.49,0.9-0.73c1.56,0.1,3.12,0.21,4.66,0.31 c0.88,1.13,2.37,1.27,3.37,2.17C286.34,204.11,286.32,204.37,286.49,204.84z"></path><path d="M331.43,181.65c-0.44-0.22-0.7-0.24-0.81-0.25c-0.95-1.04-1.82-1.99-2.69-2.95c0.27-1.48-1.44-1.72-1.62-2.81 c-0.67-0.04-1.19-0.08-1.58-0.11c-1.64,1.04-3.67,1.19-4.91,2.71c-1.99,0.17-2.75,2.15-4.33,2.93c-0.39-0.03-0.78-0.05-0.94-0.06 c-1.27,1.11-2.42,2.12-3.32,2.91c-0.75-0.05-1-0.07-1.35-0.09c-1.06,1.7-3.24,1.58-4.82,2.76c-0.64-0.04-1.41-0.09-2.18-0.15 c-0.32,0.25-0.62,0.48-0.96,0.74c-0.47-0.03-0.98-0.07-1.49-0.1c-0.31,0.25-0.61,0.49-0.9,0.74c-0.77-0.05-1.55-0.1-2.32-0.16 c-0.17-0.2-0.35-0.4-0.64-0.74c-0.99-0.07-2.12-0.14-3.1-0.21c-0.96-1.13-2.19-1.42-3.03-1.89c-1.7-1.91-3.26-3.65-4.79-5.37 c0.01-0.29,0.01-0.55,0.02-0.8c-1.2-1.37-2.4-2.74-3.6-4.11c0.02-0.25,0.03-0.51,0.05-0.74c-0.25-0.61-0.93-0.34-1.28-0.68 c-0.46-0.46-0.86-0.97-1.3-1.48c-0.76-0.05-1.53-0.1-2.33-0.16c-0.49,0.32-0.87,0.97-1.65,0.67c-1.17,1.03-2.35,2.05-3.52,3.08 c-0.65,1.01-0.78,2.39-1.87,3.08c-1.79,1.13-2.2,3.24-3.5,4.72c-0.2,0.22-0.09,0.71-0.45,0.98c-0.31,0.23-0.56,0.53-0.73,0.7 c-0.75,0.14-1.07-0.22-1.47-0.59c-0.33-0.31-0.86-0.4-1.3-0.59c0.11-1.62,0.21-3.17,0.32-4.74c0.66-0.4,0.66-1.31,1.18-1.78 c0.67-0.61,0.53-1.74,1.49-2.09c0.96-0.35,0.65-1.56,1.49-2.1c1.17-0.74,1.5-2.17,2.18-3.32c0.36-0.07,0.71-0.14,1.17-0.22 c0.09-0.31,0.18-0.66,0.22-0.78c1.07-1.01,2.01-1.89,2.94-2.77c0.56,0.04,1.07,0.07,1.54,0.1c0.23-0.2,0.43-0.37,0.71-0.62 c1.45,0.1,2.98,0.2,4.73,0.32c0.12,0.1,0.39,0.35,0.77,0.69c0.37,0.03,0.88,0.06,1.49,0.1c0.56,0.65,1.24,1.26,1.71,2.01 c0.46,0.72,1.48,0.4,1.84,1.2c0.39,0.88,1.45,0.91,2.05,1.52c-0.02,0.26-0.03,0.52-0.05,0.78c2.05,2.35,4.11,4.69,6.17,7.05 c0.24,0.02,0.5,0.03,0.74,0.05c0.27,0.29,0.54,0.57,0.79,0.83c1.31,0.09,2.6,0.17,3.62,0.24c2.22-0.97,4.21-1.83,6.2-2.7 c0.75,0.26,0.96-0.68,1.67-0.7c1.18-0.03,1.59-1.01,1.93-2.04c0.33-0.05,0.69-0.1,1.05-0.15c1.1-0.82,1.89-2.09,3.42-2.26 c0.92-1.12,2.32-1.33,3.53-1.91c0.56-0.27,1.01-0.74,1.55-1.05c0.52-0.29,1.18-0.39,1.63-0.75c0.63-0.51,1.25-0.04,2.09-0.35 c0.07-0.06,0.37-0.3,0.69-0.55c1.53,0.1,3.08,0.21,4.64,0.31c0.17,0.18,0.34,0.37,0.54,0.59c0.77,0.5,1.71,0.21,2.56,0.42 c0.77,0.88,1.54,1.76,2.4,2.75c0.03,0.24,0.08,0.6,0.14,1.02c0.19,0.36,0.6,0.32,1.05,0.36c0.45,1.06,0.9,2.15,1.36,3.23 c0.29,0.02,0.55,0.04,0.79,0.05c0.18,0.21,0.36,0.41,0.53,0.6c0.1,0.07,0.19,0.2,0.29,0.21c1.42,0.11,2.85,0.2,4.25,0.29 c2.01-0.88,4.01-1.74,6.22-2.7c0.51,0.03,1.28,0.09,2.13,0.14c0.66-1.17,2.03-1.31,3.08-1.96c0.38-0.23,0.98-0.1,1.59-0.15 c1.02-0.96,2.14-2.02,3.05-2.87c0.94,0.06,1.45,0.1,2.05,0.14c0.18-0.43,0.37-0.87,0.56-1.31c0.46-0.13,0.92-0.26,1.36-0.38 c0.04-0.34,0.07-0.59,0.1-0.85c0.59-0.95,1.76,0.19,2.4-0.67c0.47-0.64,1.61-0.02,1.84-1.02c1.13,0.08,2.16,0.14,3.12,0.21 c0.63-0.25,0.92-1.13,1.98-0.45c0.03,0.03,0.3,0.31,0.57,0.6c0.76,0.05,1.53,0.1,2.29,0.15c0.18,0.21,0.35,0.41,0.65,0.75 c0.35,0.05,0.84,0.11,1.52,0.21c-0.07-0.02,0.09-0.03,0.15,0.05c0.7,0.77,1.38,1.56,1.86,2.11c1.72,0.97,3.18,1.8,5.27,2.98 c1.19,0.19,3.13,0.11,4.98,0.37c0.21,0.24,0.38,0.43,0.59,0.67c1.09,0.07,2.22,0.15,3.35,0.22c0.7-1.19,2.28,0.01,3.07-1.14 c0.16-0.23,0.97-0.03,1.55-0.02c0.25-0.2,0.55-0.43,0.87-0.69c1.78,0.12,3.59,0.24,5.42,0.36c0.73,0.42,0.03,1.58,1.01,1.93 c-0.07,1.01-0.14,2.04-0.24,3.53c-0.12,0.07-0.55,0.53-1.01,0.56c-1.14,0.09-1.77,0.9-2.55,1.54c-1.32-0.39-2.42,0.42-3.46,0.93 c-0.78,0.39-1.45,0.26-2.15,0.33c-0.32,0.25-0.62,0.49-0.93,0.74c-1.29-0.09-2.58-0.17-3.79-0.25c-0.37,0.27-0.67,0.49-0.89,0.66 c-0.72,0.11-1.02-0.33-1.45-0.87c-1.53-0.1-3.18-0.21-4.69-0.31c-0.3-0.34-0.47-0.54-0.67-0.77c-0.73-0.05-1.5-0.1-2.25-0.15 c-0.48-0.66-1.34-0.74-1.82-1.23c-0.54-0.55-1.1-0.61-1.73-0.6c-0.73,0.02-0.79-1.05-1.57-0.9c-1.19-1.28-2.95-1.88-3.97-3.38 c-0.76-0.05-1.54-0.1-2.33-0.16c-1.32,1.11-3.32,0.99-4.49,2.51c-0.01,0.17-0.03,0.43-0.04,0.66c-0.33,0.56-0.98,0.18-1.36,0.5 c-0.4,0.34-0.76,0.69-1.39,0.5c-1.03,0.96-2.07,1.92-3,2.79c-1.62-0.11-2.8,0.56-4,1.12c-1.2,0.56-2.58,0.76-3.62,1.65 c-1.85-0.36-3.19,1.08-4.86,1.37c-0.22,0.04-0.39,0.32-0.65,0.55c-0.71-0.05-1.47-0.1-2.23-0.15c-0.33,0.24-0.63,0.47-1,0.74 c-2.25-0.15-4.57-0.31-6.99-0.47c-0.46-0.5-0.98-1.06-1.5-1.64c-0.25-0.02-0.5-0.03-0.75-0.05 C332.81,183.22,332.21,182.54,331.43,181.65z"></path></g></g></svg>