<?xml version="1.0"?><svg xmlns="http://www.w3.org/2000/svg" xmlns:xlink="http://www.w3.org/1999/xlink" contentScriptType="text/ecmascript" fill="#000000" width="389.8" zoomAndPan="magnify" contentStyleType="text/css" viewBox="61.1 -2.1 389.8 513.8" height="513.8" preserveAspectRatio="xMidYMid meet" version="1"><g clip-rule="evenodd" fill-rule="evenodd"><g id="change1_1"><path fill="#3a6b1a" d="M362.4,194.5c-2.9-2.7-3-7.2-0.3-10.1c12.4-11.9,35.8,33.7,38.9,44.9c5.5,16.6,7.8,35.6,5.7,57.2 c-2.3,24.5,29.8,47.5,39.1,66.1c3.3,12.7-23.4,17.7-34.6,19.9c-13.2,79.1,27.8,100.2-82,95.1c-6.5,0-10.3,1.3-10.3,8.7v28.2 c0,4-3.2,7.2-7.2,7.2H171.3c-4,0-7.2-3.2-7.2-7.2c3-21.5,9.3-103.9-9-124.6c-32.5-39-50.3-120.4-12.1-168c5.5-7.5,17,0.6,11.6,8.3 c-34.1,42.4-17.1,116.4,11.6,150.8c20.6,24.5,16.4,95.8,13.1,126.5h125.4c-1.9-49.9,5.4-44.1,49.3-43.3 c12.8-0.7,41.2,2.9,40.2-14.8c-2.4-16.7,0.7-67.9,6.9-76.8c2.2-2.2,7.2-3.5,13.4-5c7.2-1.8,17.9,0.5,17.4-1.9 c-15.6-18.1-41.1-41.7-39.4-70.3C396,249.5,386.9,217.7,362.4,194.5z"></path></g><g id="change1_2"><path fill="#3a6b1a" d="M256,318.5h-44.4c-4,0-7.2-3.2-7.2-7.2c0-18.6-3.7-20.8-9.4-24.2c-18.1-10.8-33.1-26.5-43.3-45.1 C108.6,165.2,167.3,65.8,256,67c88.7-1.2,147.4,98.2,104.2,175c-10.1,18.6-25.1,34.3-43.3,45.1c-5.6,3.4-9.4,5.6-9.4,24.2 c0,4-3.2,7.2-7.2,7.2H256L256,318.5z M218.6,304.2h74.9c1.4-22.5,8.3-24.2,19.3-31.2c86.2-56.1,46.8-191.4-56.7-191.7 C152.5,81.7,113.1,216.9,199.3,273C210.3,280,217.2,281.7,218.6,304.2z"></path></g><g id="change1_3"><path fill="#3a6b1a" d="M217.9,304.2h72.9c8.2,0,15.6,3.3,21,8.7c18.7,17.7,5,51.4-21,50.8c0,0-72.9,0-72.9,0 C178.7,362.7,178.6,305.3,217.9,304.2z M290.8,318.5h-72.9c-20.3,0.4-20.3,30.5,0,30.9c0,0,72.9,0,72.9,0 C311,349,311.1,318.9,290.8,318.5z"></path></g><g id="change1_4"><path fill="#3a6b1a" d="M208.1,349.4h92.5c4,0,7.2,3.2,7.2,7.2c-0.1,9.7,1.7,24.4-7,31c-4,3.7-9.3,6-15.1,6H223 c-6.1,0-11.6-2.5-15.6-6.5c-8.2-6.7-6.4-21.2-6.5-30.6C200.9,352.6,204.1,349.4,208.1,349.4z M293.4,363.7h-78.2v7.8 c0,4.3,3.5,7.8,7.8,7.8h62.6c4.3,0,7.8-3.5,7.8-7.8V363.7z"></path></g><g id="change1_5"><path fill="#3a6b1a" d="M238.3,229.6c0-9.3,14.3-9.4,14.3,0v81.8c0,9.3-14.3,9.4-14.3,0V229.6z"></path></g><g id="change1_6"><path fill="#3a6b1a" d="M227.6,200.8c13.8,0,25,11.2,25,25v17.8c0,4-3.2,7.2-7.2,7.2h-17.8C194.7,249.8,194.7,201.7,227.6,200.8z M227.6,215.1c-9.3-0.3-14.2,12-7.5,18.2c3.6,4.5,13.2,2.9,18.2,3.1v-10.7C238.3,219.9,233.4,215.1,227.6,215.1z"></path></g><g id="change1_7"><path fill="#3a6b1a" d="M256.1,229.6c0-9.3,14.3-9.4,14.3,0v81.8c0,9.3-14.3,9.4-14.3,0V229.6z"></path></g><g id="change1_8"><path fill="#3a6b1a" d="M281.1,215.1c-5.9,0-10.7,4.8-10.7,10.7v10.7c5.1-0.3,14.6,1.4,18.2-3.1C295.3,227.1,290.3,214.8,281.1,215.1 L281.1,215.1z M281.1,200.8c32.9,0.9,32.9,49.1,0,50c0,0-17.8,0-17.8,0c-4,0-7.2-3.2-7.2-7.2v-17.8 C256.1,212,267.3,200.8,281.1,200.8z"></path></g><g id="change1_9"><path fill="#3a6b1a" d="M248.8,7.3c0-9.3,14.3-9.4,14.3,0v34.5c0,9.3-14.3,9.4-14.3,0V7.3z"></path></g><g id="change1_10"><path fill="#3a6b1a" d="M342.6,28.6c4.7-8,17-0.9,12.4,7.2l-17.3,29.9c-4.7,8-17,1-12.4-7.2L342.6,28.6z"></path></g><g id="change1_11"><path fill="#3a6b1a" d="M413,93.9c8.1-4.6,15.2,7.6,7.2,12.4l-29.9,17.3c-8.1,4.6-15.2-7.6-7.2-12.4L413,93.9z"></path></g><g id="change1_12"><path fill="#3a6b1a" d="M441.5,185.6c9.3,0,9.4,14.3,0,14.3h-34.5c-4,0-7.2-3.2-7.2-7.2c0-4,3.2-7.2,7.2-7.2H441.5z"></path></g><g id="change1_13"><path fill="#3a6b1a" d="M70.5,199.9c-9.3,0-9.4-14.3,0-14.3h34.5c9.3,0,9.4,14.3,0,14.3H70.5z"></path></g><g id="change1_14"><path fill="#3a6b1a" d="M91.8,106.2c-8-4.7-0.9-17,7.2-12.4l29.9,17.3c8,4.7,0.9,17-7.2,12.4L91.8,106.2z"></path></g><g id="change1_15"><path fill="#3a6b1a" d="M157.1,35.7c-4.6-8.1,7.7-15.2,12.4-7.1l17.3,29.9c4.6,8.1-7.7,15.2-12.4,7.1L157.1,35.7z"></path></g><g id="change2_1"><path fill="#7eae5e" d="M207,323.1c-9.7,9-2.5,26.8,10.9,26.4c0,0,72.9,0,72.9,0c20.1-0.4,20.4-30.1,0.3-30.9 c-0.1-0.1-27.6,0.1-27.8,0c-4.2,0-13.5,0-17.8,0h-27.5C213.7,318.5,209.8,320.3,207,323.1z"></path></g><g id="change2_2"><path fill="#7eae5e" d="M290.8,363.7h-72.9h-2.7v7.8c0,4.3,3.5,7.8,7.8,7.8h62.6c4.3,0,7.8-3.5,7.8-7.8v-7.8H290.8z"></path></g></g></svg>