<?xml version="1.0"?><svg xmlns="http://www.w3.org/2000/svg" xmlns:xlink="http://www.w3.org/1999/xlink" contentScriptType="text/ecmascript" fill="#000000" width="511" zoomAndPan="magnify" contentStyleType="text/css" viewBox="0.5 26.9 511.0 458.2" height="458.2" preserveAspectRatio="xMidYMid meet" version="1"><g><g id="change1_18"><path fill="#3a6b1a" d="M245.4,445H66.8c-11.5,0-20.8-9.3-20.8-20.8v-35.3c0-2.5,2.1-4.6,4.6-4.6h140.7c1.7,0,3.1-1.4,3.1-3.1V175 c0-1.7-1.4-3.1-3.1-3.1H50.6c-2.5,0-4.6-2.1-4.6-4.6v-43.1c0-2.5,2.1-4.6,4.6-4.6h232.5c1.3,0,2.6,0.6,3.4,1.5 c2.5,3.2,0.2,7.6,0.7,11.3c0,35.1,27.4,64,61.9,66.3v-27.5c0-2.5,2.1-4.6,4.6-4.6c12.2,0,23.6-6.6,29.7-17.1 c1.3-2.2,4.1-2.9,6.3-1.7l23.8,13.7c5.6-11.4,7.8-24.4,6.3-36.9c-0.4-2.6,1.9-5.2,4.6-5.1l35.3,0c2.5,0,4.6,2.1,4.6,4.6v134.8 c0,2.5-2.1,4.6-4.6,4.6h-79.7v46.4c0,5-4,9-9,9H250v121.5C250,443,247.9,445,245.4,445z M55.2,393.5v30.7 c0,6.4,5.2,11.7,11.7,11.7h174V314.3c0-2.5,2.1-4.6,4.6-4.6h125.4l-0.2-50.8c0-2.5,2.1-4.6,4.6-4.6h79.7V128.7h-25.7 c0.7,14.5-2.8,29-10,41.5c-1.2,2.2-4.2,3-6.3,1.7L388.8,158c-7.2,9.9-18.4,16.3-30.5,17.6v27.9c0,2.5-2.1,4.6-4.6,4.6 c-43,0.1-77.8-36.4-75.6-79.4H55.2v34h136.1c6.8,0,12.3,5.5,12.3,12.3v206.2c0,6.8-5.5,12.3-12.3,12.3H55.2z"></path></g><g><g id="change2_6"><path fill="#7eae5e" clip-rule="evenodd" d="M66.8,31.5h376.5c8.9,0,16.2,7.3,16.2,16.2v76.4h-35.3c-11.3-83.2-130.1-82.8-141.2,0H50.6V47.7 C50.6,38.8,57.9,31.5,66.8,31.5z M389.8,118.1c-0.2-0.4-0.4-0.9-0.5-1.3C389.4,117.2,389.6,117.6,389.8,118.1L389.8,118.1z M110,56.4c-28.2,0.7-28.2,42,0,42.7C138.1,98.4,138.1,57.1,110,56.4L110,56.4z M177.6,56.4c-28.2,0.7-28.2,42,0,42.7 C205.8,98.4,205.8,57.1,177.6,56.4z" fill-rule="evenodd"></path></g><g id="change1_13"><path fill="#3a6b1a" d="M459.5,128.7h-35.3c-2.3,0-4.3-1.7-4.6-4.1c-10.5-77.7-121.6-77.7-132.1,0c-0.3,2.3-2.2,4.1-4.6,4.1H50.6 c-2.5,0-4.6-2.1-4.6-4.6V47.7c0-11.5,9.4-20.8,20.8-20.8h376.5c11.5,0,20.8,9.3,20.8,20.8v76.4 C464.1,126.7,462.1,128.7,459.5,128.7z M428.2,119.5h26.7V47.7c0-6.4-5.2-11.7-11.7-11.7H66.8c-6.4,0-11.7,5.2-11.7,11.7v71.8 h223.9C294.4,36.5,412.8,36.4,428.2,119.5z M389.8,122.7c-4.8,0.1-7.3-8-2.4-10.1C394.1,109.7,397.5,122.5,389.8,122.7z M177.7,103.7c-34.2-0.9-34.2-51,0-51.9C211.8,52.7,211.8,102.8,177.7,103.7z M177.7,61c-22,0.4-22,33.1,0,33.5 C199.7,94.1,199.7,61.4,177.7,61z M110,103.7c-34.2-0.9-34.2-51,0-51.9C144.2,52.7,144.2,102.8,110,103.7z M110,61 c-22,0.4-22,33.1,0,33.5C132,94.1,132,61.4,110,61z"></path></g></g><g><g id="change2_7"><path fill="#7eae5e" clip-rule="evenodd" d="M375.2,258.9h122.8c4.8,0,8.8,4,8.8,8.8v204c0,4.8-4,8.8-8.8,8.8H254.2c-4.8,0-8.8-4-8.8-8.8V314.3h125.4 c2.4,0,4.4-2,4.4-4.4V258.9L375.2,258.9z M278.3,390.1c-0.9,0-1.6,0.7-1.6,1.6v59.5c0,0.9,0.7,1.6,1.6,1.6h36.6 c0.9,0,1.6-0.7,1.6-1.5c0,0.8,0.7,1.5,1.6,1.5h36.6c0.9,0,1.6-0.7,1.6-1.6v-92c0-0.9-0.7-1.6-1.6-1.6h-36.6 c-0.9,0-1.6,0.7-1.6,1.6v32.4c0-0.8-0.7-1.5-1.6-1.5H278.3L278.3,390.1z M437.4,318.5c-0.9,0-1.6,0.7-1.6,1.6v42 c0-0.8-0.7-1.5-1.6-1.5h-36.6c-0.9,0-1.6,0.7-1.6,1.6v89.1c0,0.9,0.7,1.6,1.6,1.6h36.6c0.9,0,1.6-0.7,1.6-1.5 c0,0.9,0.7,1.5,1.6,1.5H474c0.9,0,1.6-0.7,1.6-1.6V320.1c0-0.9-0.7-1.6-1.6-1.6H437.4L437.4,318.5z M357.8,341.1 c-0.9,0-1.6,0.7-1.6,1.6v108.6c0,0.9,0.7,1.6,1.6,1.6h36.6c0.9,0,1.6-0.7,1.6-1.6V342.6c0-0.9-0.7-1.6-1.6-1.6H357.8z" fill-rule="evenodd"></path></g><g id="change1_15"><path fill="#3a6b1a" d="M498.1,485.1H254.2c-7.4,0-13.4-6-13.4-13.4V314.3c0-2.5,2.1-4.6,4.6-4.6h125.4l-0.2-50.8 c0-2.5,2.1-4.6,4.6-4.6h122.8c7.4,0,13.4,6,13.4,13.4v204C511.5,479.1,505.5,485.1,498.1,485.1z M250,318.9v152.8 c0,2.3,1.9,4.2,4.2,4.2h243.9c2.3,0,4.2-1.9,4.2-4.2v-204c0-2.3-1.9-4.2-4.2-4.2H379.8v46.4c0,5-4,9-9,9H250z M474,457.4 c-63.3,0-132.4,0-195.7,0c-3.4,0-6.2-2.8-6.2-6.2v-59.5c0-3.4,2.8-6.2,6.2-6.2h33.6v-26.3c0-3.4,2.8-6.2,6.2-6.2h33.6 c0.4-5.4-2.4-16.4,6.2-16.6c0,0,36.6,0,36.6,0c3.4,0,6.2,2.8,6.2,6.2V356h30.6v-35.9c0-3.4,2.8-6.2,6.2-6.2H474 c3.4,0,6.2,2.8,6.2,6.2v131.2C480.1,454.7,477.4,457.4,474,457.4z M440.4,451.1C440.4,451.1,440.4,451.2,440.4,451.1 C440.4,451.2,440.4,451.1,440.4,451.1z M431.2,451.1C431.2,451.1,431.2,451.2,431.2,451.1C431.2,451.2,431.2,451.1,431.2,451.1z M321.1,451.1C321.1,451.1,321.1,451.2,321.1,451.1C321.1,451.2,321.1,451.1,321.1,451.1z M439.2,448.2H471V323.1h-30.6v39 c0.2,4.2-5.5,6.1-8,3.1h-31.8v83h31.8C434.1,446.4,437.5,446.4,439.2,448.2z M360.8,448.2h30.6V345.7h-30.6V448.2z M319.9,448.2 h31.8v-86h-30.6v29.4c0.1,4.1-5.4,6.1-8,3.1h-31.8v53.5h31.8C314.8,446.4,318.2,446.4,319.9,448.2z M314.9,394.7L314.9,394.7 L314.9,394.7z M431.2,362.3C431.2,362.3,431.2,362.3,431.2,362.3C431.2,362.3,431.2,362.3,431.2,362.3z M394.4,345.7L394.4,345.7 L394.4,345.7z M474,323.1L474,323.1L474,323.1z"></path></g></g><g id="change1_16"><path fill="#3a6b1a" d="M191.3,393.5H12.8c-6.8,0-12.3-5.5-12.3-12.3V175c0-6.8,5.5-12.3,12.3-12.3h178.5c6.8,0,12.3,5.5,12.3,12.3 v206.2C203.6,388,198.1,393.5,191.3,393.5z M12.8,171.8c-1.7,0-3.1,1.4-3.1,3.1v206.2c0,1.7,1.4,3.1,3.1,3.1h178.5 c1.7,0,3.1-1.4,3.1-3.1V175c0-1.7-1.4-3.1-3.1-3.1H12.8z"></path></g><g id="change1_23"><path fill="#3a6b1a" d="M314.9,457.4h-36.6c-3.4,0-6.2-2.8-6.2-6.2v-59.5c0-3.4,2.8-6.2,6.2-6.2h36.6c3.4,0,6.2,2.8,6.2,6.2v59.5 C321.1,454.7,318.3,457.4,314.9,457.4z M281.3,448.2h30.6v-53.5h-30.6V448.2z M314.9,394.7L314.9,394.7L314.9,394.7z"></path></g><g id="change1_24"><path fill="#3a6b1a" d="M354.7,457.4h-36.6c-3.4,0-6.2-2.8-6.2-6.2v-92c0-3.4,2.8-6.2,6.2-6.2h36.6c3.4,0,6.2,2.8,6.2,6.2v92 C360.8,454.7,358.1,457.4,354.7,457.4z M321.1,448.2h30.6v-86h-30.6V448.2z M354.7,362.3L354.7,362.3L354.7,362.3z"></path></g><g id="change1_25"><path fill="#3a6b1a" d="M394.4,457.4h-36.6c-3.4,0-6.2-2.8-6.2-6.2V342.6c0-3.4,2.8-6.2,6.2-6.2h36.6c3.4,0,6.2,2.8,6.2,6.2v108.6 C400.6,454.7,397.8,457.4,394.4,457.4z M360.8,448.2h30.6V345.7h-30.6V448.2z M394.4,345.7L394.4,345.7L394.4,345.7z"></path></g><g id="change1_8"><path fill="#3a6b1a" d="M434.2,457.4h-36.6c-3.4,0-6.2-2.8-6.2-6.2v-89.1c0-3.4,2.8-6.2,6.2-6.2h36.6c3.4,0,6.2,2.8,6.2,6.2v89.1 C440.4,454.7,437.6,457.4,434.2,457.4z M400.6,448.2h30.6v-83h-30.6V448.2z M434.2,365.2L434.2,365.2L434.2,365.2z"></path></g><g id="change1_21"><path fill="#3a6b1a" d="M474,457.4h-36.6c-3.4,0-6.2-2.8-6.2-6.2V320.1c0-3.4,2.8-6.2,6.2-6.2H474c3.4,0,6.2,2.8,6.2,6.2v131.2 C480.1,454.7,477.4,457.4,474,457.4z M440.4,448.2H471V323.1h-30.6V448.2z M474,323.1L474,323.1L474,323.1z"></path></g><g id="change1_20"><path fill="#3a6b1a" d="M353.7,208.1c-100.3-3.8-100.2-147.5,0-151.3c20.2,0,39.2,7.9,53.5,22.2c1.8,1.8,1.8,4.7,0,6.5l-22.8,22.8 c-0.9,0.9-2,1.3-3.2,1.3c-1.7,0.1-3-1-4.1-2.1c-6.6-6.2-15.2-9.5-24.4-9.2c-18.8,0.6-33.8,16.3-33.2,35.3 c0.6,18.6,15.9,33.4,34.6,33.2c2.5-0.1,4.5,3.2,4.2,4.6c0,1.4,0,32.1,0,32.6C358.1,206.2,356.1,208.1,353.7,208.1z M353.7,65.9 c-85.3,2.7-89.1,124.4-4.6,132.8v-23.1c-21.8-2.3-38.9-20.8-38.9-43.2c-1.1-35.6,43.9-56.8,70.7-33.8l16.4-16.4 C385.2,71.7,369.9,65.9,353.7,65.9z"></path></g><g><g id="change2_2"><path fill="#7eae5e" clip-rule="evenodd" d="M387.3,151.8l27.9,16.1c-12.7,22-36.2,35.5-61.6,35.5v-32.2C368,171.3,380.6,163.4,387.3,151.8z" fill-rule="evenodd"></path></g><g id="change1_22"><path fill="#3a6b1a" d="M353.7,208.1c-2.5,0-4.6-2.1-4.6-4.6v-32.2c0-2.5,2.1-4.6,4.6-4.6c12.2,0,23.6-6.6,29.7-17.1 c1.3-2.2,4.1-2.9,6.3-1.7l27.9,16.1c2.2,1.3,2.9,4.1,1.7,6.3C405.7,193.6,380.6,208.1,353.7,208.1z M358.3,175.6v23.1 c20.4-1.4,39.1-12.2,50.6-29.2l-20-11.6C381.6,167.9,370.4,174.3,358.3,175.6z"></path></g></g><g id="change1_12"><path fill="#3a6b1a" d="M415.2,172.5c-0.8,0-1.6-0.2-2.3-0.6L385,155.8c-2.2-1.2-3-4.2-1.7-6.3c3-5.2,4.6-11.1,4.6-17.1 c0-9.1-3.6-17.8-10-24.2c-1.8-1.8-1.8-4.7,0-6.5l22.8-22.8c1.7-1.7,4.8-1.7,6.5,0c24.1,23.4,29.1,62.5,12,91.3 C418.4,171.7,416.8,172.6,415.2,172.5z M393.4,150l20,11.6c11.7-23.4,7.8-53.4-9.6-72.8l-16.4,16.4 C397.6,117.4,400,135.5,393.4,150z"></path></g><g id="change1_9"><path fill="#3a6b1a" d="M353.7,175.9c-57.4-1.8-57.4-85.1,0-86.9C411.1,90.8,411.1,174,353.7,175.9z M353.7,98.2 c-45.2,1.2-45.2,67.3,0,68.5C398.8,165.5,398.8,99.3,353.7,98.2z"></path></g><g id="change1_2"><path fill="#3a6b1a" d="M165.7,330.6H33.6c-6,0-6-9.2,0-9.2h132.1C171.7,321.4,171.7,330.5,165.7,330.6z"></path></g><g id="change1_11"><path fill="#3a6b1a" d="M99.6,360H33.6c-6,0-6-9.2,0-9.2h66.1C105.6,350.9,105.6,360,99.6,360z"></path></g><g><g id="change2_3"><path fill="#7eae5e" clip-rule="evenodd" d="M38.4,293.9v-25.2c0-1,0.8-1.8,1.8-1.8h16c1,0,1.8,0.8,1.8,1.8v25.2c0,1-0.8,1.8-1.8,1.8h-16 C39.2,295.7,38.4,294.9,38.4,293.9z" fill-rule="evenodd"></path></g><g id="change1_17"><path fill="#3a6b1a" d="M56.2,300.3h-16c-3.5,0-6.4-2.9-6.4-6.4v-25.2c0-3.5,2.9-6.4,6.4-6.4h16c3.5,0,6.4,2.9,6.4,6.4v25.2 C62.5,297.4,59.7,300.3,56.2,300.3z M43,291.1h10.3v-19.6H43V291.1z"></path></g></g><g><g id="change2_5"><path fill="#7eae5e" clip-rule="evenodd" d="M74.3,293.9v-34.1c0-1,0.8-1.8,1.8-1.8h16c1,0,1.8,0.8,1.8,1.8v34.1c0,1-0.8,1.8-1.8,1.8h-16 C75.1,295.7,74.3,294.9,74.3,293.9z" fill-rule="evenodd"></path></g><g id="change1_5"><path fill="#3a6b1a" d="M92.1,300.3h-16c-3.5,0-6.4-2.9-6.4-6.4v-34.1c0-3.5,2.9-6.4,6.4-6.4h16c3.5,0,6.4,2.9,6.4,6.4v34.1 C98.4,297.4,95.6,300.3,92.1,300.3z M78.9,291.1h10.3v-28.5H78.9V291.1z"></path></g></g><g><g id="change2_1"><path fill="#7eae5e" clip-rule="evenodd" d="M110.2,293.9v-41.6c0-1,0.8-1.8,1.8-1.8h16c1,0,1.8,0.8,1.8,1.8v41.6c0,1-0.8,1.8-1.8,1.8h-16 C111,295.7,110.2,294.9,110.2,293.9z" fill-rule="evenodd"></path></g><g id="change1_10"><path fill="#3a6b1a" d="M128,300.3h-16c-3.5,0-6.4-2.9-6.4-6.4v-41.6c0-3.5,2.9-6.4,6.4-6.4h16c3.5,0,6.4,2.9,6.4,6.4v41.6 C134.4,297.4,131.5,300.3,128,300.3z M114.8,291.1h10.3v-36h-10.3V291.1z"></path></g></g><g><g id="change2_4"><path fill="#7eae5e" clip-rule="evenodd" d="M146.2,293.9v-52.6c0-1,0.8-1.8,1.8-1.8h16c1,0,1.8,0.8,1.8,1.8v52.6c0,1-0.8,1.8-1.8,1.8h-16 C147,295.7,146.2,294.9,146.2,293.9z" fill-rule="evenodd"></path></g><g id="change1_3"><path fill="#3a6b1a" d="M163.9,300.3h-16c-3.5,0-6.4-2.9-6.4-6.4v-52.6c0-3.5,2.9-6.4,6.4-6.4h16c3.5,0,6.4,2.9,6.4,6.4v52.6 C170.3,297.4,167.4,300.3,163.9,300.3z M150.8,291.1h10.3v-47h-10.3V291.1z"></path></g></g><g id="change1_1"><path fill="#3a6b1a" d="M38.4,248.1c-5.4,0.1-6.2-8.4-0.7-9.1c43.7-7,75.3-14.2,107.7-30.7c2.2-1.1,5-0.3,6.2,2c1.2,2.3,0.3,5-2,6.2 C116,233.5,83.1,241.2,38.4,248.1z"></path></g><g id="change1_14"><path fill="#3a6b1a" d="M370.8,318.9H203.4c-5,0-9-4-9-9v-102c0-5,4-9,9-9h167.5c5,0,9,4,9,9v102 C379.8,314.9,375.8,318.9,370.8,318.9z M203.6,208.1v101.8l167.3-0.2l-0.2-101.8L203.6,208.1z"></path></g><g id="change1_19"><path fill="#3a6b1a" d="M350.3,295.8c-9.2,0.6-17.4-12-25.3-13.4c-2.6,0-6.4,3-9.8,5.7c-10.8,10-20.2,10-31,0 c-3.4-2.7-7.2-5.7-9.8-5.7c-7.9,1.4-16.1,14-25.3,13.4c-9.2,0.6-17.4-12-25.3-13.4c-2.5,0-4.6-2.1-4.6-4.6 c2.1-10.3,15.2-1,20.1,3.1c3.4,2.7,7.2,5.7,9.8,5.7c7.9-1.4,16-14,25.3-13.4c9.2-0.6,17.4,12,25.3,13.4c2.6,0,6.4-3,9.8-5.7 c4.8-3.8,9.7-7.7,15.5-7.7c5.8,0,10.7,3.9,15.5,7.7c3.4,2.7,7.2,5.7,9.8,5.7C356.3,286.7,356.4,295.8,350.3,295.8z"></path></g><g id="change1_7"><path fill="#3a6b1a" d="M350.3,232.6H223.9c-6,0-6-9.2,0-9.2h126.5C356.3,223.4,356.4,232.6,350.3,232.6z"></path></g><g id="change1_6"><path fill="#3a6b1a" d="M266.7,257.6h-42.8c-6,0-6-9.2,0-9.2h42.8C272.7,248.5,272.7,257.6,266.7,257.6z"></path></g><g id="change1_4"><path fill="#3a6b1a" d="M329.9,257.6h-42.8c-6,0-6-9.2,0-9.2h42.8C335.9,248.5,336,257.6,329.9,257.6z"></path></g></g></svg>