<?xml version="1.0"?><svg xmlns="http://www.w3.org/2000/svg" xmlns:xlink="http://www.w3.org/1999/xlink" contentScriptType="text/ecmascript" fill="#000000" width="511.5" zoomAndPan="magnify" contentStyleType="text/css" viewBox="0.3 8.0 511.5 464.1" height="464.1" preserveAspectRatio="xMidYMid meet" version="1"><g clip-rule="evenodd" fill-rule="evenodd"><g id="change1_1"><path fill="#3a6b1a" d="M348.9,80.8c-9.3,0-9.4-14.3,0-14.3h109.3c10.3,0,19.6,4.2,26.4,11h0c6.8,6.8,11,16.1,11,26.5v284 c0,9.2-14.3,9.5-14.3,0c0,0,0-284,0-284c0-6.4-2.6-12.1-6.8-16.3c-4.2-4.2-10-6.8-16.3-6.8H348.9L348.9,80.8z M369.7,390.9H142.3 c-9.3,0-9.4,14.3,0,14.3c0,0,227.5,0,227.5,0C379,405.1,379.2,390.9,369.7,390.9L369.7,390.9z M30.7,387.9c0,9.2-14.3,9.5-14.3,0 c0,0,0-284,0-284c0-10.5,4.3-20.1,11.4-26.9c6.7-6.5,15.9-10.6,26-10.6h109.8c4,0,7.2,3.2,7.2,7.2c0,4-3.2,7.2-7.2,7.2H53.9 c-6.4,0-12.2,2.6-16.3,6.8c-4.2,4.2-6.8,10-6.8,16.3V387.9z"></path></g><g id="change1_2"><path fill="#3a6b1a" d="M376.9,406.2c-0.1,9.4-14.2,9.4-14.3,0v-18.3c0-4,3.2-7.2,7.2-7.2h134.8c4,0,7.2,3.2,7.2,7.2v56.6 c0,7.6-3.1,14.5-8.1,19.5c-5,5-11.9,8.1-19.5,8.1H27.8c-15.2,0-27.5-12.4-27.5-27.5v-56.6c0-4,3.2-7.2,7.2-7.2h134.8 c4,0,7.2,3.2,7.2,7.2v18.3c0,4-3.2,7.2-7.2,7.2c-9.6-0.2-6.8-12.1-7.2-18.3H14.6v49.5c0,7.3,6,13.2,13.2,13.2h456.3 c7.3,0,13.2-6,13.2-13.2v-49.5H376.9V406.2z"></path></g><g id="change1_3"><path fill="#3a6b1a" d="M376.9,398v18.3c0,14-11.4,25.4-25.4,25.4h-191c-7,0-13.4-2.9-18-7.5c-9.6-7.8-7.3-25.2-7.5-36.2 c0-4,3.2-7.2,7.2-7.2h227.5C373.7,390.9,376.9,394.1,376.9,398L376.9,398z M362.6,416.3v-11.1H149.4v11.1c0,6.1,5,11.1,11.1,11.1 h191C357.6,427.4,362.6,422.4,362.6,416.3z"></path></g><g id="change1_4"><path fill="#3a6b1a" d="M296.9,154.5l5.8-4.7c6.5-5.2,16-4.2,21.2,2.3l17.4,21.6c5.7,6.5,4.6,16.8-2.4,21.9l-5.4,4.3l1.1,3.7l6.9,0.7 c8.6,0.6,15.1,8.6,13.8,17.2l-3,27.6c-0.9,8.3-8.3,14.3-16.6,13.4l-7.4-0.8l-1.8,3.4l4.6,5.8c5.2,6.5,4.2,16-2.3,21.2l-22,17.7 c-6.5,5.2-16,4.2-21.2-2.3l-4.6-5.7l-3.7,1.1l-0.7,6.9c-0.6,8.2-7.8,14.5-16,13.9c-0.4,0-0.8,0-1.2-0.1l-27.1-2.9 c-8.6-0.6-15.1-8.6-13.8-17.2l0.7-6.8l-3.4-1.8l-5.4,4.3c-6.2,5.4-15.7,4.7-21.1-1.4c-0.3-0.3-0.5-0.6-0.8-0.9l-17.1-21.2 c-5.7-6.5-4.6-16.8,2.4-21.9l5.3-4.3l-1.1-3.7l-6.9-0.7c-8.2-0.6-14.5-7.8-13.9-16c0-0.4,0-0.8,0.1-1.2l2.9-27.1 c0.6-8.6,8.6-15.1,17.2-13.8l6.8,0.7l1.9-3.4l-4.3-5.4c-5.7-6.5-4.6-16.8,2.4-21.9l21.6-17.4c6.5-5.2,16-4.2,21.2,2.3l4.6,5.7 l3.7-1.1l0.8-7.3c0.9-8.3,8.3-14.3,16.6-13.4l28.1,3c8.3,0.9,14.3,8.3,13.4,16.6l-0.8,7.4L296.9,154.5z M311.6,160.9l-9.7,7.8 c-4.5,3.9-9.4-0.4-13.5-2.7c-4.1-2.2-10.4-3.9-9.6-9.9l1.3-12.4c0-0.4-0.3-0.8-0.7-0.9l-28.1-3c-0.4,0-0.9,0.3-0.9,0.7l-1.3,12 c-0.1,6.2-6.9,6.8-11.5,8c-4.5,1.4-10.1,4.6-13.8-0.2l-7.8-9.7c-0.3-0.3-0.8-0.4-1.1-0.1l-22,17.7c-0.3,0.3-0.4,0.8-0.1,1.1 l7.8,9.7c3.9,4.5-0.4,9.4-2.7,13.6c-2.3,4.2-3.8,10.3-9.9,9.6l-12.4-1.3c-0.4,0-0.8,0.3-0.9,0.7c-0.6,9.5-2.9,19.4-2.8,28.7 c5.4,2,17.8-0.9,19.2,7.3c0.3,6.6,7.4,14.1,1.2,19.6c0,0-9.7,7.8-9.7,7.8c-0.3,0.3-0.4,0.8-0.1,1.1c5.9,6.7,12.1,15,17.8,22 c0.3,0.3,0.8,0.4,1.1,0.1l9.7-7.8c4.5-3.9,9.5,0.4,13.5,2.7c4.2,2.3,10.3,3.8,9.6,9.9l-1.3,12.4c0,0.2,0.1,0.4,0.2,0.6 c7.6,0.5,24.2,4,29.5,2.7c0,0,1.3-12.1,1.3-12.1c0.2-3.2,2.5-6,5.8-6.6c6.6-0.3,14.1-7.4,19.6-1.2c0,0,7.8,9.7,7.8,9.7 c0.3,0.3,0.8,0.4,1.1,0.1l22-17.7c0.3-0.3,0.4-0.8,0.1-1.1c-3-4.6-12.8-11.9-8.2-18.1c4.4-4.8,4.7-15.2,13-14.7l12.4,1.3 c0.2,0,0.4,0,0.6-0.2c0.2-0.1,0.3-0.3,0.3-0.5l3-28.1c0-0.4-0.3-0.8-0.7-0.9l-12-1.3c-3.2-0.2-6-2.5-6.6-5.8 c-0.3-6.6-7.4-14.1-1.2-19.6c0,0,9.7-7.8,9.7-7.8c0.3-0.3,0.4-0.8,0.1-1.1l-17.8-22C312.4,160.7,311.9,160.7,311.6,160.9 L311.6,160.9z M261.3,178.3c-61.4-4.7-70.9,84.1-9.9,92.6C312.8,275.6,322.3,186.8,261.3,178.3L261.3,178.3z M281.5,204.4 c-27.5-32.5-76.1,6.7-50.2,40.5C258.8,277.3,307.4,238.1,281.5,204.4z"></path></g><g id="change1_5"><path fill="#3a6b1a" d="M381.3,207.9c-9.2-81.4-102-133.5-176.3-98.5c-60.8,25.9-96,105.9-62.4,165.5c8-5.2,19-2.7,24.2,5h0 c2.7-0.3,15.3,65.9,16.4,68.8c3.1,13.9-12.5,26.3-25.3,19.9c0,0-56.6-25.9-56.6-25.9c-13-4.5-15.8-23.3-4.6-31.3 C13.5,176.7,147.5,8,297.9,45.1c70.7,15.6,128,76.3,139.9,147.9c8.2,46-2.1,94.9-28.1,133.8c-11.8,15.2-42.5,62.5-63.2,38.7 c-7.6-10.6-24.2-23.1-15.3-37.5C366,298.2,388.4,254.5,381.3,207.9L381.3,207.9z M393.8,196.3c8.9,41.7-2.9,87.1-30.6,119.5 c-5.7,7-12.8,13-19.5,19.2c-0.9,1.4-0.8,3.2,0.3,4.5l13.7,17c0.3,0.4,0.7,0.7,1.1,1c1.3,0.7,3.1,0.6,4.3-0.4 c13.4-10.9,25.2-23.9,34.7-38.2c44.9-65.1,35.2-159.9-21.7-214.7c-58.6-60.4-161.5-66.1-226.2-12.1c-57.7,45.4-82.8,131.2-48.8,198 c3.1,6.3,7,12.8,11,18.6c2.2,3.1,1.7,7.4-1.3,9.8l-5.4,4.3c-0.4,0.3-0.7,0.7-1,1.1c-0.7,1.3-0.6,3.1,0.4,4.3 c3.9,4.3,50.3,23.4,59.1,27.5c2.6,1.2,5.6-0.9,5.4-3.7c-2-17.5-9.6-44.3-13.6-62.6c-0.4-2-2.6-3.4-4.6-2.9c-2,0.8-4.9,3.2-6.8,4.7 c-11.7,6.6-18.3-19.5-22.2-27c-10.5-29.2-8.5-61.9,3.1-90.5C177.4,44.3,364.4,59.8,393.8,196.3z"></path></g><g id="change2_1"><path fill="#7eae5e" d="M302.6,229.6c-8.5,61-97.2,51.4-92.6-9.9C218.6,158.7,307.3,168.2,302.6,229.6L302.6,229.6z M182.1,265.6 c4.4,4.9,15.8,21.8,19,22.8c0,0,9.7-7.8,9.7-7.8c4.5-3.9,9.5,0.4,13.5,2.7c4.2,2.3,10.3,3.8,9.6,9.9l-1.3,12.4 c0,0.4,0.3,0.8,0.7,0.9c9.3,0,20.3,3.7,29,2.4c0,0,1.3-12.1,1.3-12.1c0.1-6.2,6.9-6.8,11.5-8c4.5-1.4,10.1-4.6,13.8,0.2l7.8,9.7 c0.3,0.3,0.8,0.4,1.1,0.1l22-17.7c0.3-0.3,0.4-0.8,0.1-1.1c-3-4.6-12.8-11.9-8.2-18.1c4.4-4.8,4.7-15.2,13-14.7l12.4,1.3 c0.4,0,0.9-0.3,0.9-0.7l3-28.1c0-0.4-0.3-0.8-0.7-0.9l-12-1.3c-6.2-0.1-6.8-6.9-8-11.5c-1.4-4.5-4.6-10.1,0.2-13.8l9.7-7.8 c0.3-0.3,0.4-0.8,0.1-1.1l-17.8-22c-0.3-0.3-0.8-0.4-1.1-0.1l-9.7,7.8c-4.5,3.9-9.4-0.4-13.5-2.7c-4.1-2.2-10.4-3.9-9.6-9.9 l1.3-12.4c0-0.4-0.3-0.8-0.7-0.9l-28.1-3c-0.2,0-0.4,0.1-0.6,0.2c-0.2,0.1-0.3,0.3-0.3,0.5l-1.3,12c-0.1,6.2-6.9,6.8-11.5,8 c-4.5,1.4-10.1,4.6-13.8-0.2l-7.8-9.7c-0.3-0.3-0.8-0.4-1.1-0.1l-22,17.7c-0.3,0.3-0.4,0.8-0.1,1.1l7.8,9.7 c3.9,4.5-0.4,9.4-2.7,13.6c-2.3,4.2-3.8,10.3-9.9,9.6l-12.4-1.3c-0.4,0-0.8,0.3-0.9,0.7c-0.8,9.3-2.4,18.9-3,28.2 c0,0.4,0.3,0.8,0.7,0.9l12,1.3c3.2,0.2,6,2.5,6.6,5.8c0.3,6.6,7.4,14.1,1.2,19.6c0,0-9.7,7.8-9.7,7.8 C182.2,265.2,182.1,265.4,182.1,265.6z"></path></g><g id="change2_2"><path fill="#7eae5e" d="M488.4,395.1H376.9c0.1,1.9,0,9.1,0,11.1v10.1c0,14-11.4,25.4-25.4,25.4h-191c-7,0-13.4-2.9-18-7.5 c-10.8-10.4-6.7-25.1-7.5-39.2H23.6h-9v49.5c0,7.3,6,13.2,13.2,13.2h456.3c7.3,0,13.2-6,13.2-13.2v-49.5H488.4z"></path></g></g></svg>