<?xml version="1.0"?><svg xmlns="http://www.w3.org/2000/svg" xmlns:xlink="http://www.w3.org/1999/xlink" contentScriptType="text/ecmascript" fill="#000000" width="487.9" zoomAndPan="magnify" contentStyleType="text/css" viewBox="12.4 -3.6 487.9 515.4" height="515.4" preserveAspectRatio="xMidYMid meet" version="1"><g clip-rule="evenodd" fill-rule="evenodd"><g id="change1_1"><path fill="#3a6b1a" d="M190.1,397.9l0-63.8h-48.3c13.6,24.1-5.5,56.2-33.3,55.5c-27.8,0.7-46.9-31.4-33.3-55.5H26.8v138.4 c0,6.8,2.8,13.1,7.3,17.6c4.5,4.5,10.7,7.3,17.6,7.3h138.4v-63.8c0-4,3.2-7.2,7.2-7.2c6.5,0.3,8.2,8.2,14.2,10.2 c23.6,12,45.9-18.9,27.3-37.5h0c-9.4-10.1-27.9-8.7-35.6,2.9C199.3,407.7,189.9,404.5,190.1,397.9L190.1,397.9z M204.4,327v55.5 c24.1-13.6,56.2,5.5,55.5,33.3c0.7,27.9-31.4,46.9-55.5,33.3v55.5c0,4-3.2,7.2-7.2,7.2H51.7c-21.6,0-39.2-17.7-39.2-39.2V327 c0-4,3.2-7.2,7.2-7.2h70.9c2.2,0,4.4,1.1,5.8,3c5.4,8.1-6.4,11.7-8.8,18.3c-12,23.6,18.9,45.9,37.5,27.3h0 c9.9-9.2,8.8-27.5-2.5-35.3c-2-1.3-3.4-3.5-3.4-6.1c0-4,3.2-7.2,7.2-7.2h70.9C201.2,319.8,204.4,323,204.4,327z"></path></g><g id="change1_2"><path fill="#3a6b1a" d="M222.1,378c20.9,0,37.8,17,37.8,37.8c0.7,27.9-31.4,46.9-55.5,33.3v48.3h138.4c6.8,0,13.1-2.8,17.6-7.3 c4.5-4.5,7.3-10.7,7.3-17.6V334.1h-63.8c-4,0-7.2-3.2-7.2-7.2c0.3-6.5,8.2-8.2,10.2-14.2c8-15-3.7-34.6-20.9-34.1 c-22.4-0.4-32,29.9-13.7,42.5c5.6,3.8,2.5,13.2-4.2,12.9l-63.8,0v48.3C209.7,379.6,215.7,378,222.1,378z M238.7,399.2 c-9.2-9.9-27.5-8.8-35.3,2.4c-3.4,6-13.5,3.3-13.3-3.7V327c0-4,3.2-7.2,7.2-7.2h55.5c-13.6-24.1,5.5-56.2,33.3-55.5 c27.8-0.7,46.9,31.4,33.3,55.5h55.5c4,0,7.2,3.2,7.2,7.2v145.5c0,21.6-17.7,39.2-39.2,39.2H197.2c-4,0-7.2-3.2-7.2-7.2v-70.9 c0-2.2,1.1-4.4,3-5.8c8.1-5.4,11.7,6.4,18.3,8.8C235,448.7,257.3,417.7,238.7,399.2z"></path></g><g id="change1_3"><path fill="#3a6b1a" d="M366.8,235.2l34.1-34.1c-26.6-7.5-35.9-43.6-15.6-62.8c14.7-14.8,38.6-14.8,53.4,0h0c4.5,4.5,7.6,9.9,9.4,15.6 l34.1-34.1l-97.9-97.9c-4.8-4.8-11.2-7.3-17.6-7.3c-6.4,0-12.8,2.4-17.6,7.3l-97.9,97.9l45.1,45.1c2.8,2.8,2.8,7.3,0,10.1 c-4.8,4.3-11.6,0-17.2,2.8c-35.8,14.4-5.4,64.3,23.8,39v0c5.5-5.4,7.8-13,6.6-20.4c-0.6-3.9,2-7.5,5.9-8.2c2.3-0.4,4.6,0.4,6.2,2 L366.8,235.2L366.8,235.2z M422,200.2l-50.1,50.1c-2.8,2.8-7.3,2.8-10.1,0l-39.2-39.2c-7.5,26.6-43.6,35.8-62.8,15.6l0,0 c-20.2-19.2-10.9-55.3,15.6-62.8l-39.2-39.2c-2.8-2.8-2.8-7.3,0-10.1L339.1,11.7c15.3-15.3,40.2-15.3,55.5,0l102.9,102.9 c2.8,2.8,2.8,7.3,0,10.1l-50.1,50.1c-4.6,4.8-13.4,0.5-12.1-6.2c0.6-3.7,0.3-7.5-0.8-11c-4.8-16.1-26.7-21.7-38.6-9.7 c-12.8,11.7-7.4,34.3,9,39.3c5.6,2.8,12.4-1.5,17.2,2.8C424.8,192.9,424.8,197.4,422,200.2z"></path></g><g id="change1_4"><path fill="#3a6b1a" d="M172.4,275.9c-20.9,0-37.8-17-37.8-37.8c-0.7-27.9,31.4-46.9,55.5-33.3v-48.3H51.7c-6.8,0-13.1,2.8-17.6,7.3 c-4.5,4.5-7.3,10.7-7.3,17.6v138.4h63.8c4,0,7.2,3.2,7.2,7.2c-0.3,6.5-8.2,8.2-10.2,14.2c-8,15,3.7,34.6,20.9,34.1 c22.4,0.4,32-29.9,13.7-42.5c-5.6-3.8-2.5-13.2,4.2-12.9l63.8,0v-48.3C184.7,274.4,178.7,275.9,172.4,275.9L172.4,275.9z M155.8,254.8c9.2,9.9,27.5,8.8,35.3-2.4c3.4-6,13.5-3.3,13.3,3.7V327c0,4-3.2,7.2-7.2,7.2h-55.5c13.6,24.1-5.5,56.2-33.3,55.5 c-27.8,0.7-46.9-31.4-33.3-55.5H19.6c-4,0-7.2-3.2-7.2-7.2V181.4c0-21.6,17.7-39.2,39.2-39.2h145.5c4,0,7.2,3.2,7.2,7.2v70.9 c0,2.2-1.1,4.4-3,5.8c-8.1,5.4-11.7-6.4-18.3-8.8C159.5,205.3,137.1,236.2,155.8,254.8z"></path></g><g id="change1_5"><path fill="#3a6b1a" d="M150.9,34.5c-4.6-8.1,7.7-15.2,12.4-7.1l31.4,54.4c4.6,8.1-7.7,15.2-12.4,7.1L150.9,34.5z"></path></g><g id="change1_6"><path fill="#3a6b1a" d="M208.7,26.9c0-9.3,14.3-9.4,14.3,0v35.2c0,9.3-14.3,9.4-14.3,0V26.9z"></path></g><g id="change1_7"><path fill="#3a6b1a" d="M115.5,90.5c-9-2.4-5.4-16.2,3.7-13.8l40.4,10.8c9,2.4,5.4,16.2-3.7,13.8L115.5,90.5z"></path></g><g id="change2_1"><path fill="#7eae5e" d="M251.3,119.7l45.1,45.1c2.8,2.8,2.8,7.3,0,10.1c-4.8,4.3-11.6,0-17.2,2.8c-16.2,4.8-21.8,27.1-9.4,38.9 c15.3,16.2,44,1.2,39.8-20.4c-0.6-3.9,2-7.5,5.9-8.2c2.3-0.4,4.6,0.4,6.2,2l45.1,45.1l34.1-34.1c-26.9-7.5-35.9-44.2-15.2-63.2 c19.3-19.7,54.9-10.3,62.3,16l34.1-34.1l-97.9-97.9c-4.8-4.8-11.2-7.3-17.6-7.3c-6.4,0-12.8,2.4-17.6,7.3L251.3,119.7z"></path></g><g id="change2_2"><path fill="#7eae5e" d="M81.8,378.5L81.8,378.5L81.8,378.5z M190.1,334.1h-48.3c13.6,24.1-5.5,56.2-33.3,55.5 c-27.8,0.7-46.9-31.4-33.3-55.5H26.8v138.4c0,6.8,2.8,13.1,7.3,17.6c4.5,4.5,10.7,7.3,17.6,7.3h138.4v-63.8c0-4,3.2-7.2,7.2-7.2 c6.5,0.3,8.2,8.2,14.2,10.2c14.9,8,34.6-3.7,34.2-20.9c0.5-17.2-19.2-28.9-34.2-20.9c-5.9,2-7.7,9.8-14.2,10.2 c-3.9,0-7.2-3.2-7.2-7.2V334.1z"></path></g></g></svg>