<?xml version="1.0"?><svg xmlns="http://www.w3.org/2000/svg" xmlns:xlink="http://www.w3.org/1999/xlink" contentScriptType="text/ecmascript" fill="#000000" width="540" zoomAndPan="magnify" contentStyleType="text/css" viewBox="-14.0 0.7 540.0 510.6" height="510.6" preserveAspectRatio="xMidYMid meet" version="1"><g><g id="change1_1"><path fill="#7eae5e" clip-rule="evenodd" d="M217.5,190c0,0-37.2,9.8-36.5,22.5c0.7,12.6,23.9,48.5,23.9,48.5l-11.2,21.8l-63.2-46l14.7-30.9l-0.4-48.7 c-45.9,48-50.1,134.9-8.7,187.2l37,0.9l49.1,38.6l4.4,18.2c19.4,4,41.1,3.8,60.4-0.4l12.6-46.6l-35.4-22.2 c-12.9-8.1-30.5-43.1-30.5-43.1l28-48.4c0,0,66.7-21.8,77.2-16.1l8.4,20.4c0,0,39.8-9,39.3,1.4l-1.2,27.6l-21.1,24.5l-9.2,56.4 c1.5,1.5,4.5,4.5,5.9,5.9c78.3-76.1,45.2-213.6-57.9-246.4c-5.4,13.6-27.5,63-33.8,77.2L217.5,190z" fill-rule="evenodd"></path></g><g id="change2_15"><path fill="#3a6b1a" d="M112.5,117.6c-1.3,0-2.6-0.5-3.6-1.5L71.6,78.8c-4.8-4.6,2.6-12,7.2-7.2l37.4,37.3 C119.4,111.9,116.9,117.8,112.5,117.6z"></path></g><g id="change2_2"><path fill="#3a6b1a" d="M399.5,117.6c-4.4,0.1-6.9-5.7-3.6-8.7l37.4-37.3c4.6-4.8,12,2.6,7.2,7.2c0,0-37.4,37.3-37.4,37.3 C402.1,117.1,400.8,117.6,399.5,117.6z"></path></g><g id="change2_16"><path fill="#3a6b1a" d="M75.2,441.9c-4.4,0.1-6.9-5.7-3.6-8.7l37.4-37.3c4.6-4.8,12,2.6,7.2,7.2c0,0-37.3,37.3-37.3,37.3 C77.8,441.4,76.5,441.9,75.2,441.9z"></path></g><g id="change2_13"><path fill="#3a6b1a" d="M436.8,441.9c-1.3,0-2.6-0.5-3.6-1.5l-37.4-37.3c-4.8-4.6,2.6-12,7.2-7.2c0,0,37.3,37.3,37.3,37.3 C443.7,436.2,441.2,442.1,436.8,441.9z M361.3,366.4c-1.3,0-2.6-0.5-3.6-1.5c-2.9-3.2-10.8-8.3-5.9-13.2c4.8-4.9,9.9,3.1,13.2,5.9 C368.1,360.7,365.6,366.5,361.3,366.4z"></path></g><g id="change2_14"><path fill="#3a6b1a" d="M46.5,92.2C-14,90.3-14,2.6,46.5,0.7C106.9,2.6,106.9,90.3,46.5,92.2z M46.5,11c-46.8,1.2-46.8,69.8,0,71 C93.3,80.7,93.2,12.2,46.5,11z"></path></g><g id="change2_8"><path fill="#3a6b1a" d="M458.9,261.1h-54.1c-6.7,0-6.7-10.2,0-10.2h48.9C451,145.9,366.1,61,261.1,58.3v48.9c0,2.8-2.3,5.1-5.1,5.1 c-2.8,0-5.1-2.3-5.1-5.1V53.1c0-2.8,2.3-5.1,5.1-5.1c114.7,0,208,93.3,208,208C464,258.8,461.7,261.1,458.9,261.1z"></path></g><g id="change2_7"><path fill="#3a6b1a" d="M107.1,261.1H53.1c-2.8,0-5.1-2.3-5.1-5.1c0-114.7,93.3-208,208-208c2.8,0,5.1,2.3,5.1,5.1v54.1 c0,2.8-2.3,5.1-5.1,5.1c-2.8,0-5.1-2.3-5.1-5.1V58.3C145.9,61,61,145.9,58.3,250.9h48.9C113.8,250.9,113.8,261.1,107.1,261.1z"></path></g><g id="change2_9"><path fill="#3a6b1a" d="M256,464c-114.7,0-208-93.3-208-208c0-2.8,2.3-5.1,5.1-5.1h54.1c2.8,0,5.1,2.3,5.1,5.1c0,2.8-2.3,5.1-5.1,5.1 H58.3c2.7,105,87.6,189.9,192.6,192.6v-48.9c0-6.7,10.2-6.7,10.2,0v54.1C261.1,461.7,258.8,464,256,464z"></path></g><g id="change2_6"><path fill="#3a6b1a" d="M256,464c-2.8,0-5.1-2.3-5.1-5.1v-54.1c0-6.7,10.2-6.7,10.2,0v48.9c105-2.7,189.9-87.6,192.6-192.6h-48.9 c-2.8,0-5.1-2.3-5.1-5.1c0-2.8,2.3-5.1,5.1-5.1h54.1c2.8,0,5.1,2.3,5.1,5.1C464,370.7,370.7,464,256,464z"></path></g><g id="change2_1"><path fill="#3a6b1a" d="M465.5,92.2c-60.4-1.9-60.4-89.6,0-91.5C526,2.6,526,90.3,465.5,92.2z M465.5,11c-46.8,1.2-46.8,69.8,0,71 C512.4,80.7,512.3,12.2,465.5,11z"></path></g><g id="change2_3"><path fill="#3a6b1a" d="M46.5,511.3c-60.5-1.9-60.4-89.6,0-91.5C106.9,421.7,106.9,509.4,46.5,511.3z M46.5,430 c-46.8,1.2-46.8,69.8,0,71C93.3,499.8,93.2,431.3,46.5,430z"></path></g><g id="change2_5"><path fill="#3a6b1a" d="M465.5,511.3c-60.4-1.9-60.4-89.6,0-91.5C526,421.7,526,509.4,465.5,511.3z M465.5,430 c-46.8,1.2-46.8,69.8,0,71C512.4,499.8,512.3,431.3,465.5,430z"></path></g><g id="change2_4"><path fill="#3a6b1a" d="M354.2,367.6c-4.5,0.2-6.9-5.9-3.5-8.9c3-2.9,7.1-8.1,11.4-4C366.7,359.7,358.9,366.8,354.2,367.6z"></path></g><g id="change2_12"><path fill="#3a6b1a" d="M256,410c-84.9,0-154-69.1-154-154c8.5-204.3,299.5-204.2,308,0C410,340.9,340.9,410,256,410z M256,112.3 c-79.3,0-143.7,64.5-143.7,143.7c7.9,190.7,279.6,190.6,287.5,0C399.7,176.7,335.3,112.3,256,112.3z"></path></g><g id="change2_10"><path fill="#3a6b1a" d="M287.1,406.7c-3.2,0.1-5.9-3.3-4.9-6.5l11.6-43l-32.2-20.2c-13.7-8.6-30.5-41.5-32.3-45.2 c-0.8-1.5-0.7-3.4,0.1-4.9l28-48.4c0.6-1.1,1.6-1.9,2.8-2.3c20.7-6.7,69.9-21.8,81.2-15.8c2.8,0.6,7.8,16.9,9.1,19 c13.4-2,40-8.6,41.3,7.5c0,0-1.2,27.6-1.2,27.6c1.5,1.6-20.6,25-21.4,26.5l-11.2,68.4c-0.2,2.5-3.1,4.1-4.7,5.6 c0.4,0.7-35.1,21.3-36.3,22.1l-21.8,7.5C293.3,405.4,289.3,406.5,287.1,406.7z M239.7,289.8c5.7,10.8,18.6,33.1,27.4,38.7 l35.4,22.2c1.9,1.2,2.8,3.5,2.2,5.7l-10.3,38.3l37-16.1l17.1-12.3l11.1-68c0.2-0.9,0.6-1.8,1.2-2.5l19.9-23.2l1-24.8 c-4-1.6-18.8-0.4-33,2.8c-2.5,0.6-4.9-0.7-5.9-3l-7.5-18.2c-8.6-1.1-41.6,7.1-70,16.2L239.7,289.8z M193.7,287.8 c-1.1,0-2.1-0.3-3-1l-63.2-46c-2-1.5-2.7-4.1-1.6-6.3l14.2-29.8l-0.4-47.5c0-1.3,0.4-2.5,1.3-3.4C180.9,108,247.7,90.3,304.9,110 c2.8,0.9,4.3,4.2,3.1,6.8l-8.6,20.4l-25.3,57c-0.9,1.9-2.8,3.1-4.9,3l-51.2-2.1c-16.8,4.6-32.2,12.8-32,17 c0.5,8.2,14.4,32.5,23.1,46c1,1.5,1.1,3.5,0.2,5.1L198.2,285C197.4,286.7,195.5,287.8,193.7,287.8z M136.9,235l54.9,40l7.1-13.8 c-5.6-8.9-22.4-36.4-23.1-48.4c-0.9-15.6,30.6-25.2,40.3-27.7c0.5-0.1,1-0.2,1.5-0.2l48.5,2l30.2-68.8 c-51.6-15.5-110.3,0.9-146.4,40.9l0.4,46.7c0,0.8-0.2,1.5-0.5,2.2L136.9,235z"></path></g><g id="change2_11"><path fill="#3a6b1a" d="M226.7,407.1c-37.9-7-71.6-28.6-94.7-59.8c-1.2-1.6-1.3-3.7-0.4-5.4c0.9-1.7,2.7-2.8,4.7-2.8 c1.5,0.5,40.1-0.1,40,2l49.2,38.6c0.9,0.7,1.5,1.7,1.8,2.8l4.4,18.2C232.5,403.9,229.9,407.2,226.7,407.1z M147,349.6 c19.1,22.3,44.5,38.1,72.8,45.5l-2.1-8.4l-46.4-36.5L147,349.6z"></path></g></g></svg>